<?xml version="1.0" encoding="utf-8"?>
<!-- Generator: Adobe Illustrator 16.0.4, SVG Export Plug-In . SVG Version: 6.00 Build 0)  -->
<!DOCTYPE svg PUBLIC "-//W3C//DTD SVG 1.1//EN" "http://www.w3.org/Graphics/SVG/1.1/DTD/svg11.dtd" [
	<!ENTITY st0 "display:none;fill:none;stroke:#000000;stroke-width:3;stroke-linejoin:round;stroke-miterlimit:10;">
	<!ENTITY st1 "fill:none;stroke:#F3F3F3;stroke-miterlimit:10;">
	<!ENTITY st2 "fill:#F3F3F3;">
	<!ENTITY st3 "fill:none;stroke:#000000;stroke-miterlimit:10;">
	<!ENTITY st4 "fill:none;">
]>
<svg version="1.1" id="Layer_1" xmlns="http://www.w3.org/2000/svg" xmlns:xlink="http://www.w3.org/1999/xlink" x="0px" y="0px"
	 width="369.01px" height="61px" viewBox="0 0 369.01 61" style="enable-background:new 0 0 369.01 61;" xml:space="preserve">
<metadata><?xpacket begin="﻿" id="W5M0MpCehiHzreSzNTczkc9d"?>
<x:xmpmeta xmlns:x="adobe:ns:meta/" x:xmptk="Adobe XMP Core 5.3-c011 66.145661, 2012/02/06-14:56:27        ">
   <rdf:RDF xmlns:rdf="http://www.w3.org/1999/02/22-rdf-syntax-ns#">
      <rdf:Description rdf:about=""
            xmlns:dc="http://purl.org/dc/elements/1.1/">
         <dc:format>image/svg+xml</dc:format>
         <dc:title>
            <rdf:Alt>
               <rdf:li xml:lang="x-default">Web</rdf:li>
            </rdf:Alt>
         </dc:title>
      </rdf:Description>
      <rdf:Description rdf:about=""
            xmlns:xmp="http://ns.adobe.com/xap/1.0/"
            xmlns:xmpGImg="http://ns.adobe.com/xap/1.0/g/img/">
         <xmp:CreatorTool>Adobe Illustrator CS6 (Macintosh)</xmp:CreatorTool>
         <xmp:CreateDate>2015-03-26T11:42:19-07:00</xmp:CreateDate>
         <xmp:ModifyDate>2015-03-26T11:42:19-07:00</xmp:ModifyDate>
         <xmp:MetadataDate>2015-03-26T11:42:19-07:00</xmp:MetadataDate>
         <xmp:Thumbnails>
            <rdf:Alt>
               <rdf:li rdf:parseType="Resource">
                  <xmpGImg:width>256</xmpGImg:width>
                  <xmpGImg:height>44</xmpGImg:height>
                  <xmpGImg:format>JPEG</xmpGImg:format>
                  <xmpGImg:image>/9j/4AAQSkZJRgABAgEASABIAAD/7QAsUGhvdG9zaG9wIDMuMAA4QklNA+0AAAAAABAASAAAAAEA&#xA;AQBIAAAAAQAB/+4ADkFkb2JlAGTAAAAAAf/bAIQABgQEBAUEBgUFBgkGBQYJCwgGBggLDAoKCwoK&#xA;DBAMDAwMDAwQDA4PEA8ODBMTFBQTExwbGxscHx8fHx8fHx8fHwEHBwcNDA0YEBAYGhURFRofHx8f&#xA;Hx8fHx8fHx8fHx8fHx8fHx8fHx8fHx8fHx8fHx8fHx8fHx8fHx8fHx8fHx8f/8AAEQgALAEAAwER&#xA;AAIRAQMRAf/EAaIAAAAHAQEBAQEAAAAAAAAAAAQFAwIGAQAHCAkKCwEAAgIDAQEBAQEAAAAAAAAA&#xA;AQACAwQFBgcICQoLEAACAQMDAgQCBgcDBAIGAnMBAgMRBAAFIRIxQVEGE2EicYEUMpGhBxWxQiPB&#xA;UtHhMxZi8CRygvElQzRTkqKyY3PCNUQnk6OzNhdUZHTD0uIIJoMJChgZhJRFRqS0VtNVKBry4/PE&#xA;1OT0ZXWFlaW1xdXl9WZ2hpamtsbW5vY3R1dnd4eXp7fH1+f3OEhYaHiImKi4yNjo+Ck5SVlpeYmZ&#xA;qbnJ2en5KjpKWmp6ipqqusra6voRAAICAQIDBQUEBQYECAMDbQEAAhEDBCESMUEFURNhIgZxgZEy&#xA;obHwFMHR4SNCFVJicvEzJDRDghaSUyWiY7LCB3PSNeJEgxdUkwgJChgZJjZFGidkdFU38qOzwygp&#xA;0+PzhJSktMTU5PRldYWVpbXF1eX1RlZmdoaWprbG1ub2R1dnd4eXp7fH1+f3OEhYaHiImKi4yNjo&#xA;+DlJWWl5iZmpucnZ6fkqOkpaanqKmqq6ytrq+v/aAAwDAQACEQMRAD8A9Na7rukaBpF1rGsXSWWm&#xA;2SGS4uJDRVUfiSTsANydhvir5k8n/nrrH5kf85GeWra2Mll5VtHv/qGn1oZCNPuB69xQ0Zz2Xog2&#xA;G9SVXu/5i/mKnllLXStKtTrHnHWCY9E0SM/E7d55z/uuCPq7mnT5kKr/AMufJOoeXbW9v9c1KTV/&#xA;NOtyJca1fFmEPNARHDbRH4Y4olYqu1T37AKswxVRLNKaKeMY6t44qskmLOAv2a/fiqJxVpnVRVjT&#xA;FWlkRvsmuKtq6sKqajFW8VdirsVdirsVdirsVdirsVdirsVdirsVdirsVdirsVdirsVdirsVfAn5&#xA;/fnV5g8++YJdNaKbS/L+lzPHbaRKCkplQlGlul/371HH9jp1qSqxT8p/N83k/wA/6Z5hgt0urizW&#xA;5WCGVxFF6lxay26NK5+zGjShnP8AKD0xV92/lt+Xw0MXHmLWb1db85a2qyaprXVOBoyW1oP2LdNu&#xA;IH2up7AKs5xVRcmST060UdfE4qpzPv6aiir28cVUl+0PniqPxVRQB5nLb8dgMVVDGnLkBQ07YqoR&#xA;er6Z4EADv44qqLIxhDVAPQk9MVWJMwdQWDhtulKYqu5ytIyKRQdz2xVyyuA/PcpirXKfhzqKUrx9&#xA;sVcZmEabjk3c4q0JmVhVg4PWnbFV5eR3KoQoXqcVbBlCHlQEdCemKqfrOCPjDitCKUxVdJI/qcAw&#xA;QUrU4q20jpHVqE9BTFVnrOvxFw3iuKogGoBHffFXYq7FXYq7FXYq7FXYq8L/AOch/wDnHi28720v&#xA;mTy3EkHm2BKyxCiJfog2RzsBMAKI56/ZbahVV86f844aX/yHbQ9K1W0/6uNte2Vyn/avuUkiljcf&#xA;MMpGKvqeGa9/KG9S1unku/yvu5AlpduWkl0OWRqLDMxqzWTMaI5/u/sttQ4q9WjkjljWSNg8bgMj&#xA;qQVZSKggjqDirUkfPcbMOhxVTIEo4t8Mq/jiqgAQ4B2IOKo7FVJo3V+ce9eqnFW1EzNVvhH8oxV0&#xA;KMsZUih3xVT9GT0lFPiU1ocVbdJmKtQAqdhiq9EYSuxGx6HFVvpEmTlsG6HFVp9YRFTTiB9r2xVw&#xA;iLRIR9odj88VXKjlhyRVA67A4q2UkRyyAMG6jFWmSV4yGpyrUDFWnSZ1FQBx6DFV7+tX7KsvgcVW&#xA;CBjGwOxJqB2GKuCSGgKKPFqDFVcCgoMVdirsVdirsVdirsVdirsVYPqX5SeW7r8zNG/MO2H1LW9N&#xA;9Zbz01BS8jmtpLdfU3FJI/UBD71A4nsVVZndWttd20trdRJPbTo0c8Eih0dHFGVlNQQQaEHFWOeR&#xA;PJUvlCG90y21KS68vmUSaJp045PYRkH1LdZyxaSLl/dhhVBtU4qyjFVkkYeh6MOhGKukiV6HoR3x&#xA;VfirsVdirsVdirsVdiriARQ7g4qpfV4/EkeFdsVVQKCgxV2KuxV2KuxV2KuxV2KuxV2KuxV2KuxV&#xA;2KuxV2KuxV2KsI/ObzX5q8q/l9qWs+WNNOo6nAtK7MLaIg87po+sgi/lHzPwg4qr/ldq2oaz5WsN&#xA;T1K8M1/LaWyz2tOPpH0Vbm4IUtJNy9Qt9mhHHb4mVZbK7KNhircZJRSepGKrsVdirsVdirsVdirs&#xA;VdirsVdirsVdirsVdirsVdirsVdirsVdirsVdirsVdirsVdirsVdirjShr0716UxVB2X6G9RPqP1&#xA;f1Pq8XD0OHL6rVvRpx/3V9rh+z1piqMNO+KuFO2KuxV2KuxV2KuxV2KuxV2KuxV2KuxV2KuxV2Ku&#xA;xV2KuxV2KuxV2KuxV2KuxV2KuxV2Kv8A/9k=</xmpGImg:image>
               </rdf:li>
            </rdf:Alt>
         </xmp:Thumbnails>
      </rdf:Description>
      <rdf:Description rdf:about=""
            xmlns:xmpMM="http://ns.adobe.com/xap/1.0/mm/"
            xmlns:stRef="http://ns.adobe.com/xap/1.0/sType/ResourceRef#"
            xmlns:stEvt="http://ns.adobe.com/xap/1.0/sType/ResourceEvent#">
         <xmpMM:RenditionClass>proof:pdf</xmpMM:RenditionClass>
         <xmpMM:OriginalDocumentID>uuid:65E6390686CF11DBA6E2D887CEACB407</xmpMM:OriginalDocumentID>
         <xmpMM:DocumentID>xmp.did:0780117407206811822ABC47F382EF0A</xmpMM:DocumentID>
         <xmpMM:InstanceID>xmp.iid:0780117407206811822ABC47F382EF0A</xmpMM:InstanceID>
         <xmpMM:DerivedFrom rdf:parseType="Resource">
            <stRef:instanceID>xmp.iid:0580117407206811822ABC47F382EF0A</stRef:instanceID>
            <stRef:documentID>xmp.did:0580117407206811822ABC47F382EF0A</stRef:documentID>
            <stRef:originalDocumentID>uuid:65E6390686CF11DBA6E2D887CEACB407</stRef:originalDocumentID>
            <stRef:renditionClass>proof:pdf</stRef:renditionClass>
         </xmpMM:DerivedFrom>
         <xmpMM:History>
            <rdf:Seq>
               <rdf:li rdf:parseType="Resource">
                  <stEvt:action>saved</stEvt:action>
                  <stEvt:instanceID>xmp.iid:018011740720681183D1EA6A6E5B3C9E</stEvt:instanceID>
                  <stEvt:when>2015-03-25T16:11:56-07:00</stEvt:when>
                  <stEvt:softwareAgent>Adobe Illustrator CS6 (Macintosh)</stEvt:softwareAgent>
                  <stEvt:changed>/</stEvt:changed>
               </rdf:li>
               <rdf:li rdf:parseType="Resource">
                  <stEvt:action>saved</stEvt:action>
                  <stEvt:instanceID>xmp.iid:0780117407206811822ABC47F382EF0A</stEvt:instanceID>
                  <stEvt:when>2015-03-26T11:42:19-07:00</stEvt:when>
                  <stEvt:softwareAgent>Adobe Illustrator CS6 (Macintosh)</stEvt:softwareAgent>
                  <stEvt:changed>/</stEvt:changed>
               </rdf:li>
            </rdf:Seq>
         </xmpMM:History>
      </rdf:Description>
      <rdf:Description rdf:about=""
            xmlns:illustrator="http://ns.adobe.com/illustrator/1.0/">
         <illustrator:StartupProfile>Web</illustrator:StartupProfile>
      </rdf:Description>
      <rdf:Description rdf:about=""
            xmlns:xmpTPg="http://ns.adobe.com/xap/1.0/t/pg/"
            xmlns:stDim="http://ns.adobe.com/xap/1.0/sType/Dimensions#"
            xmlns:stFnt="http://ns.adobe.com/xap/1.0/sType/Font#"
            xmlns:xmpG="http://ns.adobe.com/xap/1.0/g/">
         <xmpTPg:NPages>1</xmpTPg:NPages>
         <xmpTPg:HasVisibleTransparency>False</xmpTPg:HasVisibleTransparency>
         <xmpTPg:HasVisibleOverprint>False</xmpTPg:HasVisibleOverprint>
         <xmpTPg:MaxPageSize rdf:parseType="Resource">
            <stDim:w>369.010254</stDim:w>
            <stDim:h>60.999512</stDim:h>
            <stDim:unit>Pixels</stDim:unit>
         </xmpTPg:MaxPageSize>
         <xmpTPg:Fonts>
            <rdf:Bag>
               <rdf:li rdf:parseType="Resource">
                  <stFnt:fontName>Raleway-Bold</stFnt:fontName>
                  <stFnt:fontFamily>Raleway</stFnt:fontFamily>
                  <stFnt:fontFace>Bold</stFnt:fontFace>
                  <stFnt:fontType>TrueType</stFnt:fontType>
                  <stFnt:versionString>Version 2.001; ttfautohint (v0.8) -G 200 -r 50</stFnt:versionString>
                  <stFnt:composite>False</stFnt:composite>
                  <stFnt:fontFileName>Raleway-Bold.ttf</stFnt:fontFileName>
               </rdf:li>
            </rdf:Bag>
         </xmpTPg:Fonts>
         <xmpTPg:PlateNames>
            <rdf:Seq>
               <rdf:li>Cyan</rdf:li>
               <rdf:li>Magenta</rdf:li>
               <rdf:li>Yellow</rdf:li>
            </rdf:Seq>
         </xmpTPg:PlateNames>
         <xmpTPg:SwatchGroups>
            <rdf:Seq>
               <rdf:li rdf:parseType="Resource">
                  <xmpG:groupName>Default Swatch Group</xmpG:groupName>
                  <xmpG:groupType>0</xmpG:groupType>
                  <xmpG:Colorants>
                     <rdf:Seq>
                        <rdf:li rdf:parseType="Resource">
                           <xmpG:swatchName>White</xmpG:swatchName>
                           <xmpG:mode>RGB</xmpG:mode>
                           <xmpG:type>PROCESS</xmpG:type>
                           <xmpG:red>255</xmpG:red>
                           <xmpG:green>255</xmpG:green>
                           <xmpG:blue>255</xmpG:blue>
                        </rdf:li>
                        <rdf:li rdf:parseType="Resource">
                           <xmpG:swatchName>Black</xmpG:swatchName>
                           <xmpG:mode>RGB</xmpG:mode>
                           <xmpG:type>PROCESS</xmpG:type>
                           <xmpG:red>0</xmpG:red>
                           <xmpG:green>0</xmpG:green>
                           <xmpG:blue>0</xmpG:blue>
                        </rdf:li>
                        <rdf:li rdf:parseType="Resource">
                           <xmpG:swatchName>background color</xmpG:swatchName>
                           <xmpG:mode>RGB</xmpG:mode>
                           <xmpG:type>PROCESS</xmpG:type>
                           <xmpG:red>243</xmpG:red>
                           <xmpG:green>243</xmpG:green>
                           <xmpG:blue>243</xmpG:blue>
                        </rdf:li>
                     </rdf:Seq>
                  </xmpG:Colorants>
               </rdf:li>
               <rdf:li rdf:parseType="Resource">
                  <xmpG:groupName>Grays</xmpG:groupName>
                  <xmpG:groupType>1</xmpG:groupType>
                  <xmpG:Colorants>
                     <rdf:Seq>
                        <rdf:li rdf:parseType="Resource">
                           <xmpG:swatchName>R=0 G=0 B=0</xmpG:swatchName>
                           <xmpG:mode>RGB</xmpG:mode>
                           <xmpG:type>PROCESS</xmpG:type>
                           <xmpG:red>0</xmpG:red>
                           <xmpG:green>0</xmpG:green>
                           <xmpG:blue>0</xmpG:blue>
                        </rdf:li>
                     </rdf:Seq>
                  </xmpG:Colorants>
               </rdf:li>
               <rdf:li rdf:parseType="Resource">
                  <xmpG:groupName>changecase.net</xmpG:groupName>
                  <xmpG:groupType>1</xmpG:groupType>
                  <xmpG:Colorants>
                     <rdf:Seq>
                        <rdf:li rdf:parseType="Resource">
                           <xmpG:swatchName>R=243 G=243 B=243</xmpG:swatchName>
                           <xmpG:mode>RGB</xmpG:mode>
                           <xmpG:type>PROCESS</xmpG:type>
                           <xmpG:red>243</xmpG:red>
                           <xmpG:green>243</xmpG:green>
                           <xmpG:blue>243</xmpG:blue>
                        </rdf:li>
                     </rdf:Seq>
                  </xmpG:Colorants>
               </rdf:li>
            </rdf:Seq>
         </xmpTPg:SwatchGroups>
      </rdf:Description>
      <rdf:Description rdf:about=""
            xmlns:pdf="http://ns.adobe.com/pdf/1.3/">
         <pdf:Producer>Adobe PDF library 10.01</pdf:Producer>
      </rdf:Description>
   </rdf:RDF>
</x:xmpmeta>
                                                                                                    
                                                                                                    
                                                                                                    
                                                                                                    
                                                                                                    
                                                                                                    
                                                                                                    
                                                                                                    
                                                                                                    
                                                                                                    
                                                                                                    
                                                                                                    
                                                                                                    
                                                                                                    
                                                                                                    
                                                                                                    
                                                                                                    
                                                                                                    
                                                                                                    
                                                                                                    
                           
<?xpacket end="w"?>
	</metadata>
<g>
	<polygon style="&st2;" points="8.347,81 16.01,88.663 16.01,73.336 	"/>
	<polyline style="&st1;" points="11.51,73.336 3.847,81 11.51,88.663 	"/>
</g>
<g>
	<polygon points="-27.653,81 -19.99,88.663 -19.99,73.336 	"/>
	<polyline style="&st3;" points="-12.49,73.336 -20.153,81 -12.49,88.663 	"/>
</g>
<polyline style="&st0;" points="34.461,1.336 4.847,30.951 34.461,60.565 "/>
<g>
	<path style="&st2;" d="M28.825,60.451c-0.587,0-1.175-0.225-1.623-0.673L0,32.576c-0.897-0.896-0.897-2.351,0-3.247L27.202,2.127
		c0.896-0.896,2.351-0.896,3.247,0c0.897,0.897,0.897,2.351,0,3.248L4.871,30.953l25.578,25.578c0.897,0.897,0.897,2.35,0,3.247
		C30,60.226,29.413,60.451,28.825,60.451z"/>
	<path style="&st2;" d="M16.45,30.919c0,0.882,0.257,1.543,0.257,1.543l28.18,28.178c0,0,0.739,0.488,1.557,0.263
		c0.608-0.168,0.567-1.214,0.567-1.214V2.137c0,0,0.021-0.992-0.681-1.107c-0.855-0.14-1.247,0.107-1.247,0.107L16.717,29.474
		C16.533,30.268,16.45,30.202,16.45,30.919z"/>
</g>
<g>
	<path d="M-73.279,30.914c0,0.412,0.266,0.64,0.266,0.64l28.93,28.93c0,0,0.229,0.263,0.662,0.268
		c0.385,0.004,0.432-0.303,0.432-0.303V1.364c0,0-0.051-0.339-0.326-0.343c-0.301-0.004-0.603,0.259-0.603,0.259l-29.103,29.091
		C-73.021,30.372-73.279,30.625-73.279,30.914z"/>
	<path d="M-15.044,61.179l-29.169-29.168c-0.586-0.585-0.586-1.536,0-2.121l29.245-29.245c0,0,0.818,0.09,1.43,0.691
		s0.598,1.524,0.598,1.524l-28.091,28.09l27.983,27.982c0,0,0.023,1.01-0.49,1.632S-15.044,61.179-15.044,61.179z"/>
</g>
<g>
	<rect x="66.01" y="12.454" style="&st4;" width="416" height="61.545"/>
	<path style="&st2;" d="M67.546,30.214c0-2.08,0.367-4.136,1.104-6.168c0.736-2.032,1.801-3.847,3.192-5.448
		c1.392-1.6,3.096-2.896,5.112-3.888c2.016-0.991,4.319-1.488,6.912-1.488c3.039,0,5.671,0.688,7.896,2.064
		c2.224,1.376,3.864,3.168,4.92,5.376l-5.088,3.504c-0.384-0.96-0.881-1.768-1.488-2.424c-0.608-0.656-1.271-1.176-1.992-1.56
		c-0.72-0.384-1.464-0.664-2.231-0.84c-0.769-0.176-1.505-0.264-2.208-0.264c-1.568,0-2.944,0.336-4.128,1.008
		c-1.185,0.672-2.168,1.544-2.952,2.616c-0.784,1.072-1.376,2.288-1.776,3.648c-0.4,1.36-0.6,2.712-0.6,4.056
		c0,1.504,0.231,2.952,0.696,4.344c0.463,1.392,1.119,2.616,1.968,3.672c0.848,1.056,1.863,1.904,3.048,2.544
		c1.184,0.64,2.479,0.96,3.888,0.96c0.736,0,1.488-0.096,2.257-0.288c0.768-0.192,1.512-0.496,2.231-0.912
		c0.72-0.416,1.384-0.952,1.992-1.608c0.607-0.656,1.104-1.448,1.488-2.376l5.424,3.12c-0.513,1.28-1.257,2.408-2.232,3.384
		c-0.977,0.977-2.088,1.8-3.336,2.472c-1.248,0.672-2.561,1.184-3.936,1.536c-1.377,0.352-2.736,0.528-4.08,0.528
		c-2.369,0-4.536-0.512-6.504-1.536c-1.969-1.024-3.665-2.359-5.088-4.008c-1.425-1.648-2.528-3.52-3.312-5.616
		C67.938,34.526,67.546,32.39,67.546,30.214z"/>
	<path style="&st2;" d="M123.486,47.494h-6.432V33.382c0-1.984-0.368-3.448-1.104-4.392c-0.736-0.943-1.775-1.416-3.12-1.416
		c-0.575,0-1.184,0.128-1.823,0.384c-0.641,0.257-1.248,0.617-1.824,1.08c-0.576,0.464-1.104,1.016-1.584,1.656
		c-0.48,0.64-0.833,1.344-1.057,2.112v14.688h-6.432v-35.04h6.432v14.544c0.929-1.632,2.185-2.887,3.769-3.768
		c1.584-0.879,3.336-1.32,5.256-1.32c1.632,0,2.96,0.28,3.984,0.84c1.023,0.561,1.823,1.304,2.399,2.232
		c0.576,0.929,0.976,1.985,1.2,3.168c0.224,1.185,0.336,2.4,0.336,3.648V47.494z"/>
	<path style="&st2;" d="M135.414,47.974c-1.217,0-2.352-0.201-3.408-0.601c-1.056-0.399-1.968-0.96-2.735-1.68
		c-0.769-0.72-1.368-1.56-1.801-2.52c-0.432-0.96-0.647-2.016-0.647-3.168c0-1.184,0.264-2.28,0.792-3.288
		c0.527-1.008,1.264-1.864,2.208-2.568c0.943-0.703,2.071-1.255,3.384-1.656c1.312-0.4,2.752-0.6,4.32-0.6
		c1.119,0,2.215,0.096,3.288,0.288c1.071,0.192,2.023,0.464,2.855,0.816v-1.44c0-1.664-0.473-2.944-1.416-3.84
		c-0.944-0.896-2.345-1.344-4.2-1.344c-1.344,0-2.656,0.24-3.936,0.72c-1.28,0.48-2.592,1.184-3.937,2.112l-1.968-4.08
		c3.232-2.144,6.72-3.216,10.464-3.216c3.616,0,6.424,0.888,8.425,2.664c1.999,1.776,3,4.344,3,7.704v7.824
		c0,0.672,0.127,1.152,0.384,1.44c0.256,0.288,0.703,0.449,1.344,0.48v5.472c-0.608,0.127-1.176,0.216-1.704,0.264
		c-0.528,0.049-0.984,0.072-1.368,0.072c-1.216-0.032-2.144-0.312-2.784-0.84c-0.64-0.528-1.04-1.24-1.199-2.136l-0.145-1.392
		c-1.12,1.473-2.48,2.592-4.08,3.36C138.949,47.589,137.238,47.974,135.414,47.974z M137.238,43.27c1.087,0,2.119-0.192,3.096-0.576
		c0.976-0.384,1.735-0.896,2.28-1.536c0.703-0.544,1.056-1.152,1.056-1.824v-2.88c-0.768-0.288-1.601-0.52-2.496-0.696
		c-0.896-0.176-1.76-0.264-2.592-0.264c-1.664,0-3.024,0.376-4.08,1.128c-1.056,0.752-1.584,1.704-1.584,2.856
		c0,1.088,0.416,1.992,1.248,2.712C134.998,42.91,136.021,43.27,137.238,43.27z"/>
	<path style="&st2;" d="M179.054,47.494h-6.432V33.382c0-2.016-0.353-3.488-1.057-4.416c-0.704-0.928-1.68-1.392-2.928-1.392
		c-0.641,0-1.296,0.128-1.968,0.384c-0.672,0.257-1.305,0.617-1.896,1.08c-0.592,0.464-1.128,1.016-1.607,1.656
		c-0.48,0.64-0.833,1.344-1.057,2.112v14.688h-6.432V22.342h5.809v4.656c0.928-1.6,2.271-2.848,4.031-3.744
		c1.76-0.896,3.744-1.344,5.952-1.344c1.567,0,2.848,0.288,3.84,0.864c0.992,0.576,1.76,1.329,2.305,2.256
		c0.543,0.928,0.919,1.984,1.128,3.168c0.207,1.184,0.312,2.384,0.312,3.6V47.494z"/>
	<path style="&st2;" d="M193.966,47.638c-1.664,0-3.191-0.336-4.584-1.008c-1.392-0.672-2.584-1.592-3.576-2.76
		c-0.992-1.168-1.76-2.52-2.304-4.056c-0.544-1.536-0.815-3.168-0.815-4.896c0-1.824,0.287-3.52,0.863-5.088
		c0.576-1.567,1.376-2.944,2.4-4.128c1.023-1.184,2.248-2.112,3.672-2.784c1.424-0.672,3-1.008,4.728-1.008
		c1.984,0,3.712,0.44,5.185,1.32c1.472,0.881,2.672,2.057,3.6,3.528v-4.416h5.616v23.952c0,1.855-0.344,3.521-1.032,4.992
		s-1.655,2.72-2.903,3.744c-1.248,1.023-2.721,1.808-4.416,2.353c-1.697,0.543-3.553,0.815-5.568,0.815
		c-2.784,0-5.112-0.456-6.984-1.368s-3.479-2.2-4.823-3.863l3.504-3.408c0.96,1.184,2.167,2.111,3.624,2.783
		c1.455,0.672,3.016,1.008,4.68,1.008c0.991,0,1.944-0.136,2.856-0.407c0.911-0.272,1.711-0.696,2.399-1.272
		c0.688-0.576,1.231-1.312,1.632-2.208s0.601-1.952,0.601-3.168v-3.168c-0.833,1.44-2.001,2.552-3.504,3.336
		C197.31,47.246,195.695,47.638,193.966,47.638z M196.174,42.501c0.704,0,1.376-0.111,2.017-0.336
		c0.64-0.223,1.224-0.528,1.752-0.912c0.527-0.384,0.999-0.832,1.416-1.344c0.415-0.512,0.735-1.056,0.96-1.632v-6
		c-0.576-1.472-1.473-2.656-2.688-3.552c-1.216-0.896-2.496-1.344-3.84-1.344c-0.992,0-1.896,0.216-2.712,0.648
		c-0.816,0.432-1.512,1.008-2.088,1.728c-0.576,0.72-1.017,1.544-1.32,2.472c-0.305,0.929-0.456,1.889-0.456,2.88
		c0,1.024,0.176,1.984,0.528,2.88c0.352,0.896,0.84,1.68,1.464,2.352c0.624,0.672,1.359,1.2,2.208,1.584
		C194.262,42.31,195.182,42.501,196.174,42.501z"/>
	<path style="&st2;" d="M225.67,47.974c-2.016,0-3.84-0.345-5.472-1.032c-1.632-0.688-3.024-1.624-4.176-2.808
		c-1.152-1.184-2.04-2.56-2.664-4.128s-0.937-3.216-0.937-4.944c0-1.792,0.304-3.48,0.912-5.064
		c0.607-1.584,1.488-2.976,2.641-4.176c1.151-1.2,2.551-2.152,4.199-2.856c1.648-0.704,3.496-1.056,5.544-1.056
		s3.88,0.353,5.496,1.056c1.616,0.704,2.992,1.648,4.128,2.832c1.136,1.184,2,2.56,2.593,4.128c0.591,1.568,0.888,3.2,0.888,4.896
		c0,0.416-0.009,0.816-0.024,1.2c-0.017,0.384-0.056,0.705-0.12,0.96h-19.439c0.096,0.993,0.336,1.872,0.72,2.64
		s0.88,1.424,1.488,1.968c0.607,0.544,1.296,0.96,2.063,1.248c0.769,0.288,1.567,0.432,2.4,0.432c1.279,0,2.487-0.312,3.624-0.936
		c1.136-0.624,1.912-1.447,2.328-2.472l5.52,1.536c-0.928,1.92-2.408,3.497-4.439,4.728C230.91,47.358,228.486,47.974,225.67,47.974
		z M232.199,32.806c-0.16-1.888-0.856-3.4-2.088-4.536c-1.232-1.135-2.729-1.704-4.488-1.704c-0.864,0-1.673,0.152-2.424,0.456
		c-0.752,0.305-1.416,0.729-1.992,1.272c-0.576,0.545-1.049,1.2-1.416,1.968c-0.368,0.768-0.584,1.616-0.647,2.544H232.199z"/>
	<path style="&st2;" d="M240.911,34.917c0-1.759,0.304-3.423,0.912-4.992c0.607-1.568,1.488-2.944,2.641-4.128
		c1.151-1.184,2.544-2.128,4.176-2.832c1.632-0.704,3.472-1.056,5.52-1.056c2.752,0,5.096,0.592,7.032,1.776
		c1.936,1.185,3.384,2.736,4.344,4.656l-6.288,1.92c-0.544-0.928-1.265-1.64-2.16-2.136c-0.896-0.496-1.888-0.744-2.976-0.744
		c-0.929,0-1.792,0.184-2.592,0.552c-0.801,0.368-1.496,0.88-2.088,1.536c-0.593,0.656-1.057,1.448-1.393,2.376
		c-0.336,0.928-0.504,1.952-0.504,3.072c0,1.121,0.176,2.145,0.528,3.072c0.352,0.928,0.823,1.728,1.416,2.4
		c0.592,0.672,1.288,1.192,2.088,1.56c0.8,0.368,1.647,0.552,2.544,0.552c1.152,0,2.216-0.288,3.192-0.864
		c0.976-0.576,1.655-1.28,2.04-2.112l6.288,1.92c-0.864,1.92-2.289,3.488-4.272,4.704c-1.984,1.217-4.368,1.825-7.152,1.825
		c-2.048,0-3.888-0.354-5.52-1.057s-3.024-1.656-4.176-2.856c-1.152-1.2-2.04-2.592-2.664-4.176S240.911,36.646,240.911,34.917z"/>
	<path style="&st2;" d="M276.243,47.974c-1.217,0-2.352-0.201-3.408-0.601c-1.056-0.399-1.968-0.96-2.735-1.68
		c-0.769-0.72-1.368-1.56-1.801-2.52c-0.432-0.96-0.647-2.016-0.647-3.168c0-1.184,0.264-2.28,0.792-3.288
		c0.527-1.008,1.264-1.864,2.208-2.568c0.943-0.703,2.071-1.255,3.384-1.656c1.312-0.4,2.752-0.6,4.32-0.6
		c1.119,0,2.215,0.096,3.288,0.288c1.071,0.192,2.023,0.464,2.855,0.816v-1.44c0-1.664-0.473-2.944-1.416-3.84
		c-0.944-0.896-2.345-1.344-4.2-1.344c-1.344,0-2.656,0.24-3.936,0.72c-1.28,0.48-2.592,1.184-3.937,2.112l-1.968-4.08
		c3.232-2.144,6.72-3.216,10.464-3.216c3.616,0,6.424,0.888,8.425,2.664c1.999,1.776,3,4.344,3,7.704v7.824
		c0,0.672,0.127,1.152,0.384,1.44c0.256,0.288,0.703,0.449,1.344,0.48v5.472c-0.608,0.127-1.176,0.216-1.704,0.264
		c-0.528,0.049-0.984,0.072-1.368,0.072c-1.216-0.032-2.144-0.312-2.784-0.84c-0.64-0.528-1.04-1.24-1.199-2.136l-0.145-1.392
		c-1.12,1.473-2.48,2.592-4.08,3.36C279.778,47.589,278.067,47.974,276.243,47.974z M278.067,43.27c1.087,0,2.119-0.192,3.096-0.576
		c0.976-0.384,1.735-0.896,2.28-1.536c0.703-0.544,1.056-1.152,1.056-1.824v-2.88c-0.768-0.288-1.601-0.52-2.496-0.696
		c-0.896-0.176-1.76-0.264-2.592-0.264c-1.664,0-3.024,0.376-4.08,1.128c-1.056,0.752-1.584,1.704-1.584,2.856
		c0,1.088,0.416,1.992,1.248,2.712C275.827,42.91,276.85,43.27,278.067,43.27z"/>
	<path style="&st2;" d="M306.722,47.974c-1.025,0-2.089-0.08-3.192-0.24c-1.104-0.16-2.184-0.385-3.24-0.672
		c-1.056-0.289-2.063-0.64-3.023-1.056c-0.96-0.416-1.809-0.88-2.544-1.392l2.592-4.368c3.199,2.081,6.288,3.12,9.264,3.12
		c1.344,0,2.4-0.24,3.168-0.72c0.769-0.48,1.152-1.167,1.152-2.064c0-0.896-0.456-1.56-1.368-1.992
		c-0.912-0.432-2.44-0.904-4.584-1.416c-1.632-0.384-3.024-0.784-4.176-1.2c-1.152-0.416-2.081-0.896-2.784-1.44
		c-0.704-0.544-1.217-1.168-1.536-1.872c-0.32-0.704-0.479-1.536-0.479-2.496c0-1.279,0.255-2.431,0.768-3.456
		c0.512-1.023,1.224-1.896,2.136-2.616c0.912-0.72,1.984-1.272,3.216-1.656c1.231-0.384,2.568-0.576,4.009-0.576
		c1.791,0,3.575,0.28,5.352,0.84c1.776,0.56,3.432,1.32,4.968,2.28l-2.64,3.984c-1.408-0.896-2.736-1.543-3.984-1.944
		c-1.248-0.399-2.496-0.6-3.744-0.6c-1.151,0-2.12,0.224-2.903,0.672c-0.785,0.448-1.176,1.168-1.176,2.16
		c0,0.864,0.375,1.488,1.128,1.872c0.751,0.384,2.088,0.816,4.008,1.296c1.792,0.448,3.319,0.896,4.584,1.344
		c1.264,0.449,2.304,0.96,3.12,1.536c0.815,0.576,1.407,1.24,1.775,1.992c0.368,0.752,0.553,1.656,0.553,2.712
		c0,1.216-0.249,2.32-0.744,3.312c-0.497,0.992-1.192,1.832-2.088,2.52c-0.896,0.688-1.992,1.216-3.288,1.583
		S308.29,47.974,306.722,47.974z"/>
	<path style="&st2;" d="M332.344,47.974c-2.016,0-3.84-0.345-5.472-1.032c-1.632-0.688-3.024-1.624-4.176-2.808
		c-1.152-1.184-2.04-2.56-2.664-4.128s-0.937-3.216-0.937-4.944c0-1.792,0.304-3.48,0.912-5.064
		c0.607-1.584,1.488-2.976,2.641-4.176c1.151-1.2,2.551-2.152,4.199-2.856c1.648-0.704,3.496-1.056,5.544-1.056
		s3.88,0.353,5.496,1.056c1.616,0.704,2.992,1.648,4.128,2.832c1.136,1.184,2,2.56,2.593,4.128c0.591,1.568,0.888,3.2,0.888,4.896
		c0,0.416-0.009,0.816-0.024,1.2c-0.017,0.384-0.056,0.705-0.12,0.96h-19.439c0.096,0.993,0.336,1.872,0.72,2.64
		s0.88,1.424,1.488,1.968c0.607,0.544,1.296,0.96,2.063,1.248c0.769,0.288,1.567,0.432,2.4,0.432c1.279,0,2.487-0.312,3.624-0.936
		c1.136-0.624,1.912-1.447,2.328-2.472l5.52,1.536c-0.928,1.92-2.408,3.497-4.439,4.728
		C337.583,47.358,335.16,47.974,332.344,47.974z M338.873,32.806c-0.16-1.888-0.856-3.4-2.088-4.536
		c-1.232-1.135-2.729-1.704-4.488-1.704c-0.864,0-1.673,0.152-2.424,0.456c-0.752,0.305-1.416,0.729-1.992,1.272
		c-0.576,0.545-1.049,1.2-1.416,1.968c-0.368,0.768-0.584,1.616-0.647,2.544H338.873z"/>
</g>
<g>
</g>
<g>
</g>
<g>
</g>
<g>
</g>
<g>
</g>
<g>
</g>
<g>
</g>
<g>
</g>
<g>
</g>
<g>
</g>
<g>
</g>
<g>
</g>
<g>
</g>
<g>
</g>
<g>
</g>
</svg>
