<?xml version="1.0" encoding="utf-8"?>
<!-- Generator: Adobe Illustrator 16.0.4, SVG Export Plug-In . SVG Version: 6.00 Build 0)  -->
<!DOCTYPE svg PUBLIC "-//W3C//DTD SVG 1.1//EN" "http://www.w3.org/Graphics/SVG/1.1/DTD/svg11.dtd" [
	<!ENTITY st0 "fill:#AA3333;">
	<!ENTITY st1 "display:none;fill:none;stroke:#000000;stroke-width:3;stroke-linejoin:round;stroke-miterlimit:10;">
	<!ENTITY st2 "fill:none;stroke:#F3F3F3;stroke-miterlimit:10;">
	<!ENTITY st3 "fill:#F3F3F3;">
	<!ENTITY st4 "fill:none;stroke:#000000;stroke-miterlimit:10;">
	<!ENTITY st5 "fill:none;">
]>
<svg version="1.1" id="Layer_1" xmlns="http://www.w3.org/2000/svg" xmlns:xlink="http://www.w3.org/1999/xlink" x="0px" y="0px"
	 width="369.01px" height="61px" viewBox="0 0 369.01 61" style="enable-background:new 0 0 369.01 61;" xml:space="preserve">
<metadata><?xpacket begin="﻿" id="W5M0MpCehiHzreSzNTczkc9d"?>
<x:xmpmeta xmlns:x="adobe:ns:meta/" x:xmptk="Adobe XMP Core 5.3-c011 66.145661, 2012/02/06-14:56:27        ">
   <rdf:RDF xmlns:rdf="http://www.w3.org/1999/02/22-rdf-syntax-ns#">
      <rdf:Description rdf:about=""
            xmlns:dc="http://purl.org/dc/elements/1.1/">
         <dc:format>image/svg+xml</dc:format>
         <dc:title>
            <rdf:Alt>
               <rdf:li xml:lang="x-default">Web</rdf:li>
            </rdf:Alt>
         </dc:title>
      </rdf:Description>
      <rdf:Description rdf:about=""
            xmlns:xmp="http://ns.adobe.com/xap/1.0/"
            xmlns:xmpGImg="http://ns.adobe.com/xap/1.0/g/img/">
         <xmp:CreatorTool>Adobe Illustrator CS6 (Macintosh)</xmp:CreatorTool>
         <xmp:CreateDate>2015-03-26T22:32:24-07:00</xmp:CreateDate>
         <xmp:ModifyDate>2015-03-26T22:32:24-07:00</xmp:ModifyDate>
         <xmp:MetadataDate>2015-03-26T22:32:24-07:00</xmp:MetadataDate>
         <xmp:Thumbnails>
            <rdf:Alt>
               <rdf:li rdf:parseType="Resource">
                  <xmpGImg:width>256</xmpGImg:width>
                  <xmpGImg:height>140</xmpGImg:height>
                  <xmpGImg:format>JPEG</xmpGImg:format>
                  <xmpGImg:image>/9j/4AAQSkZJRgABAgEASABIAAD/7QAsUGhvdG9zaG9wIDMuMAA4QklNA+0AAAAAABAASAAAAAEA&#xA;AQBIAAAAAQAB/+4ADkFkb2JlAGTAAAAAAf/bAIQABgQEBAUEBgUFBgkGBQYJCwgGBggLDAoKCwoK&#xA;DBAMDAwMDAwQDA4PEA8ODBMTFBQTExwbGxscHx8fHx8fHx8fHwEHBwcNDA0YEBAYGhURFRofHx8f&#xA;Hx8fHx8fHx8fHx8fHx8fHx8fHx8fHx8fHx8fHx8fHx8fHx8fHx8fHx8fHx8f/8AAEQgAjAEAAwER&#xA;AAIRAQMRAf/EAaIAAAAHAQEBAQEAAAAAAAAAAAQFAwIGAQAHCAkKCwEAAgIDAQEBAQEAAAAAAAAA&#xA;AQACAwQFBgcICQoLEAACAQMDAgQCBgcDBAIGAnMBAgMRBAAFIRIxQVEGE2EicYEUMpGhBxWxQiPB&#xA;UtHhMxZi8CRygvElQzRTkqKyY3PCNUQnk6OzNhdUZHTD0uIIJoMJChgZhJRFRqS0VtNVKBry4/PE&#xA;1OT0ZXWFlaW1xdXl9WZ2hpamtsbW5vY3R1dnd4eXp7fH1+f3OEhYaHiImKi4yNjo+Ck5SVlpeYmZ&#xA;qbnJ2en5KjpKWmp6ipqqusra6voRAAICAQIDBQUEBQYECAMDbQEAAhEDBCESMUEFURNhIgZxgZEy&#xA;obHwFMHR4SNCFVJicvEzJDRDghaSUyWiY7LCB3PSNeJEgxdUkwgJChgZJjZFGidkdFU38qOzwygp&#xA;0+PzhJSktMTU5PRldYWVpbXF1eX1RlZmdoaWprbG1ub2R1dnd4eXp7fH1+f3OEhYaHiImKi4yNjo&#xA;+DlJWWl5iZmpucnZ6fkqOkpaanqKmqq6ytrq+v/aAAwDAQACEQMRAD8A9U4q7FXYq7FVssscUbyy&#xA;uI44wWd2ICqoFSST0AxSBeweVajrepfmFqM1ppd0+l+RtMblqmshvSa5aP4ikbGlEHX2+03YZjmR&#xA;mdvpdzDFHTRuQ4s0uUe5gX5qfmxPr8h0bRJHh0GA8WkBKvdFduTd/T/lU9ep8BTlzXsOTsuzuzhi&#xA;9c/rP2PpTM55Njfm/wDMDy35UES6nK73dwK29jbr6k7itKhaqACdhyIrkJ5BHm5em0WTN9PIdTyQ&#xA;vlX80fLHmPUG0yD6xY6moJFjfRiKVgBU8eLOuw3pWtMEMokaZ6js/JijxGjHvCP8n+ddK812t3c6&#xA;dFPElnObaUXCopLqAarweTbfDCYlyatTpZYSBKtxeyf5NxnYq7FXYq7FXYq7FXYq7FXYq7FXYq7F&#xA;XYq7FXYq7FXYq7FXYq7FXYq7FXYq7FXlXnfUL7zP58i8gTXX6I0YIk91KSVlvwVD+lCSONNyKeKk&#xA;70pmPM8UuHkHc6SEcOHxwOKf+597CPzk8zXlhcjyNplqdL0DT0jpEgK/WagOGJ7oGPvVqk79Ks0q&#xA;9I5Ow7LwCQ8aR4py+x5XmO7l9wZtXz15N5Khi1D85vNd5qIEl7YAR2Cvvwi5BOSA9PhC/wDBe+Y8&#xA;N5m3daomOkxiPKXN6VcaDo1zqtvq1xZxS6laKyW10yguisamh/Ue29Opy8xF26mOaYiYg+k9HiH5&#xA;YeWvNGvaXrcGn67LolhHeSEG1BE0lyVFObqVZY1AGynepzExRJBo09D2hnx45RMo8cq68q/Wm3lr&#xA;zvqtx+VFxc6r5hfTL621A2EWpmH61PIoRJPTCHd3Ic/FWu3XvkozPBuWnPpIjUgRhxAxuroJTZea&#xA;PMXl/wAzaG0Wo67cWOqXKW91Za/A6ckZ1XnCztIvSSvw0IoK7HIiZiRz+LdPT48uOViAMRYMD96d&#xA;c/Oet/mp5j8v2Gu3GnaaixyTuGaRoo1SP4LZWbjGzs+7LT+Bl6jMgForFj00JygJS/HPvUdB83+Z&#xA;PKv+N9P1DUJdZGgosljPdszv6kj+mnJmLNxPNSVr22xjMx4gd6Tm02PN4Uojh4+dL7DRfzFfybJ5&#xA;2Pmu5bUJbZ779HOSbQ2/AsUCBgqOUFQUUUO3+ViIy4eK0Ty4PF8Hwxw3V9bSqT8ydf0z8svLcY1G&#xA;VdR1ie6W51ablcSxQQ3BViOZYs1HFPYbdsj4pEB5t40MJ6ie3piBty3IS+2/Mk+XtSsrvS/NOoa9&#xA;bPIqanY6nG9PT/aeJnZ+B8APxGAZeE7G2yWh8WJEscYHoY/pZlNd+aPPXnzWNGstZn0PRNAb0pDZ&#xA;kpPLLUpu6lTuyN3oAOlTXLLM5EXQDgiOPT4YzMROc+/knC23mryr5Q1YeYfNcfpx0Gm6u8JmuIlL&#xA;caOr19VmFKCpINfiIydGMTZcfix5ssfDx++N7fseb6h5s8x+XDZa5Zavr93FJcBZotZtnjs7mJgX&#xA;LwFnkQBqbLswB2pTKDMx3s/F20NNjy3Axxjb+E7j3sz/ADLvvMI83W1reapf+X/KK2xkOp6fHK3K&#xA;feqySQ1Zfp2p23rluUni50HA0EMfhEiMZ5b5Hu+Ky/8AN+peVvy7vL+08yR+Z5pLlLXTL0qhaAOn&#xA;I+tQuzOArH4z4fLAZmMbu0w00c2cRMPD2sjv937GCS+frjTraLU9M86alf60hVp7C7hc2cnIjmiq&#xA;zsqgDvTftxyrxK3BNuxGjEjwyxxjDvB3fQ3l/Vk1jQtP1VE9MX1vHP6fXiZEDFa+xNMzYmxbzGbH&#xA;wTMe4o/C1OxV2KuxV2KuxV2KuxV2KuxV2Ksc87+SNN81aasE7G3v7c+pp+oR7SwSjcEEUJUkCor+&#xA;NDkJwEg5Wk1csMrG8TzHe86ubZPNqN5I87qth5zsFJ0nVgPguk7Mp25BqfEvfqKMCBQRxemX1O1j&#xA;Lwf32HfEeY7njHmDy/qugarNpeqQmG6hO46qyn7Lo37St2OYsokGi77DmjkiJROz7PzaPBMF83/l&#xA;3qF5rsfmjyvqC6V5iRfTmaQcoJ0AoBIAG7AD7J2A2qK5TPGSbHN2Om1sYw8PIOKH2hS0LyT53n8y&#xA;W+v+bNdWWSyDLa6fp3OOCjDfmSIywNASCu/jQUxjCV3Iss2rwjGYYoc+ZlzRf5X+StV8qafqVtqM&#xA;sEr3l41zEbdnYBGUCjc0j32w4oGINtfaGqjmlExvYVuxO1/JfXU8ltpb39vDrNvqr6pp88RkeHeK&#xA;NAknJFYGqVqFNMrGA8Ndbc2XasPF4qPAY8J7+at5i/LP8yfMFrZ3uo69aNrmnzrJZQRo0dpGo3Z+&#xA;YjLtIzKp3SgpTvjLFI8zujBr9PiJEYHgkN+/7+XxZNoHkrVdP/MbXfMs0sDWGqRLHbxIzmZSvp/b&#xA;UoFH92ejHLIwIkS4ebVRlghjF3H9qVXPkOK11XzprHmG6gi8v61bgF0Z/ViVKHkwKBagiq0J3yJx&#xA;7knkW+OsuOOGMHjgWGyR69pPke8tP8a6dP5U+ryrZC3Ia9m5oeFsqstU5tsw5EqK9B0q3EeeznAw&#xA;nmB8KQyXvfIeadeV/wAvJfMX5U+XV+sNpur2Mk17pl4ASU9SdnWoqDRwFYEex9snDHxQHe0ajW+F&#xA;qZ7cUTQI+DI9G8tfmjPqtpceZPMUC2NnRja6apU3BHaZjHFQHvT6KdcnGM73LiZc+mESMcDZ6y6e&#xA;5Q1v8vPM1p5quPM3kvUoLK6vxTULK8VjA52+IFVkO5FenXvQ0wSxkG4lli1uOWMY80SRHkRzUrv8&#xA;svNOs+Ur/TfMXmFrzU7uVLmAhf8ARoHQk8VFFYq3IjsAKUXbE4iY0Syjr8ePKJY4VEbeZS7Xvyy/&#xA;MjzL5fFlr2u2kk9pwNhbQoywM6/CZZ5fTV+XAsBRKZGWKUhuW3Dr9PincIGjz7/huyDVdA/NRbiC&#xA;80fzDa8zbwxXVhdxfuPVRKSSI6ozfE9W+yv3bZMxn0Li482moicDzNEc0q0n8mZJdC1228wXyS6l&#xA;rs0dxJLaJxigliLsrIpCBvikavwjbbIjDsb6t+TtSpwMB6Ybb9VSy8nfm6yWumXvmiCDSbUr/pVo&#xA;jfXZEQjijFo1A22ryPvywiE+V7MZ6rS7yEDxHoeT0tECIqAkhQBVjUmniT1y91JLeKuxV2KuxV2K&#xA;uxV2KuxV2KuxV2KuxVj/AJy8k6R5qso4bznBdWzCSyv4CFnhcEGqN4Gm4/jQ5CcBJytLq5YTY3B5&#xA;joUP52/L3RfN2mRWt+Wju7en1bUEAMqfzA1+0rdxgnjEhuy0mtnglceR6Moyxw3Yq7FXYq7FXYq7&#xA;FVskcckbRyKHjcFXRgCCCKEEHqDikGmJp+Un5cpffXRocJm5cuLNK0Vf+MJcxU9uNMr8GPc5p7Sz&#xA;1XEfx582WqqooRAFVQAqgUAA6ADLHBbxV2KuxV2KuxV2KuxV2KuxV2KuxV2KuxV2KuxV2KuxV2Ku&#xA;xV2KuxV2KuxV2KuxV2KuxV2KuxV2KuxV2KuxV2KuxV2KuxV2KuxV2KuxV2KuxV2KuxV2KuxV2Kux&#xA;V2KuxV2KuxV2KuxV2KuxV2KuxV2KuxV2KuxV2KuxV2KuxV2KuxV2KuxV2KuxV2KuxV2KuxV2KuxV&#xA;2KuxV2KuxV2KuxV2KuxV2KuxV2KuxV2KuxV2KuxV2KuxV2KuxV2KuxV2KuxV2KuxV2KuxV2KuxV2&#xA;KuxV2KuxV2KuxV2KuxV2KuxV2KuxV2KuxV2KuxV2KuxV2KuxV2KuxV2KuxV2KuxV2KuxV2KuxV2K&#xA;uxV2KuxV2KuxV2KuxV2KuxV2KuxV2KuxV2KuxV2KuxV2KuxV2KuxV2KuxV2KuxV2KuxV2KuxV2Ku&#xA;xV2KuxV2KuxV2KuxV2KuxV2KuxV2KuxV2KuxV2KuxV2KuxV2KuxV2KuxV2KuxV2KuxV2KuxV2Kux&#xA;V2KuxV2KuxV2KuxV2KuxV2KuxV2KuxV2KuxV2KuxV2KuxV2KuxV2KuxV2KuxV2KuxV2KuxV2KuxV&#xA;2KuxV2KuxV2KuxV2KuxV2KuxV2KuxV2KuxV2KuxV2KuxV2KuxV2KuxV2KuxV2KuxV2KuxV2KuxV2&#xA;KuxV2KuxV2KuxV2KuxV2KuxV2KvLLj89NIuvzk0b8udC9O9aV7oa5fg1SJoLSaZYIiDRpBJGOZ6L&#xA;9n7VeKr0HzH5j0Xy3ot1rWtXSWem2ac553+4KoG7Mx2VRuTsMVSP8utf84eYbK81vXNOTSNMvZFb&#xA;y/pzhvrq2oH97eblQ8uzBFHwjY1xVl2KqbSnmEQVPfwGKueYB1QbkkA4qqYq7FXYq7FXYq7FXYq7&#xA;FXYq7FXYq7FXYq7FXYq7FXYq7FXYq7FXYq7FXYq7FXYq+Zf+ckf+ckRpouvJfku6rqJ5Q6xrELf7&#xA;z9mggYf7t7O4+x0HxfZVeE/84/eYtH8u/m3ouua1craabYpfS3Nw9aAfULgAADdmZiFUDck0GKvr&#xA;jy55c1r8xNatfOnnS1ez0Gzf1vKflOb9n+S/v06NOw3jjO0Y98VesYqpySMT6cf2u58MVU3dYl4J&#xA;ux+02KqMf94vzH68VR2KqABmdqn4F2AGKrvSKBqN8FD8JxVZFKVi2UtTqcVVfV+AMqlq9AMVaSar&#xA;cWUq3bFWvXJJAQkg9BirazKULHanUYqt+sGnIoQvY4quMwCKaVZuijFXLNVgrKVJ6Yq0Z/iIRS1O&#xA;pxVcJQU5BSfbvirQmPIK6la9DirmmIYqqliOuKtmYBORBFdgO9cVWicggOhUHocVVcVdirsVdirs&#xA;VdirsVdir4p/5yL/AOcdZ/KE8/mryvC03laZuV3arVnsXY/STASfhb9noexKrzn8lPKdt5t/MzR/&#xA;L9xcS2a3Yumju4CBJFNBaTTwyLXrwliVqd+mKvtjyD5+1cau/kbzyiWnnO0Qva3SDjbatbL0urU7&#xA;DnQfvI+qmpApUKq9ExVSdWjYyLuD9pcVUpYwR6ibqeo8MVU4/wC8X5j9eKo7FVAEwu1RVG3BxVd6&#xA;pcNRfgofiOKtRf7zn5HFVOpEUda8N+VPnirY4iVGVSEOwriq+3+1J88VWBS0cgHXlWmKttMGiKgG&#xA;oFD7YqtZTwjbfiBQ064quRUZxx5Gm9T0xVyP6JZXB3NQfHFV0ju0YYAqK7+NMVU34fCyKeIO5xVe&#xA;7RhySGRvEd8VWsJHiDEE0P00xVoLG5AXm3j7YqisVdirsVdirsVdirsVdiqyeCC4gkgnjWWCVSks&#xA;TgMjowoysp2II2IOKvANI/5x3fyb+fWgea/LMfLypK96bu1r8VjJLZTooFTVoWdgFPVTsexxV655&#xA;+8g6R5z0hLO8d7S/tHFxpGr2543Nncruk0Lih6gclrRh9BCqH/LrU/O89jd6X5ysPR1jSJFtzqsN&#xA;BaajGVqlzCBurEf3iU+FvuCrLsVUjGyPyT7J+0uKrWgpIrL0qKjwxVXxV2KuxV2KuxV2KuxVpgSp&#xA;AND44qpGOZhxZhx7064qrAAAAdBirsVdirsVdirsVdirsVdirsVdirsVdirsVdirsVdirsVSHzv5&#xA;38u+SvLtxr2vXAgs4BREFDJNIQeMUS1HJ2psPpNACcVXeUfMx8yaTbatDZvbWN1bwTQPI27vKnOR&#xA;VXiKolQof9o1oONCyqdu4UVOKuVuShvHFW8VdirsVdirsVdirsVdirsVdirsVdirsVdirsVdirsV&#xA;dirsVdirsVdirsVdirsVdirsVdirC/zg/wAAf4A1P/HnD9AcPi6et61D6X1bv61fsU+n4a4q1+Vf&#xA;1D/Ddj+hvX/Qn1G09H1+PD1/SHrelTv09WnwepXj8XPFWZycKfFiro6cFp0ptiq7FXYq7FXYq7FX&#xA;Yq7FXYq7FXYq7FXYq7FXYq7FXYq7FXYq7FXYq7FXYq7FXYq7FXYq/wD/2Q==</xmpGImg:image>
               </rdf:li>
            </rdf:Alt>
         </xmp:Thumbnails>
      </rdf:Description>
      <rdf:Description rdf:about=""
            xmlns:xmpMM="http://ns.adobe.com/xap/1.0/mm/"
            xmlns:stRef="http://ns.adobe.com/xap/1.0/sType/ResourceRef#"
            xmlns:stEvt="http://ns.adobe.com/xap/1.0/sType/ResourceEvent#">
         <xmpMM:RenditionClass>proof:pdf</xmpMM:RenditionClass>
         <xmpMM:OriginalDocumentID>uuid:65E6390686CF11DBA6E2D887CEACB407</xmpMM:OriginalDocumentID>
         <xmpMM:DocumentID>xmp.did:8124ECD55F206811822ABC47F382EF0A</xmpMM:DocumentID>
         <xmpMM:InstanceID>xmp.iid:8124ECD55F206811822ABC47F382EF0A</xmpMM:InstanceID>
         <xmpMM:DerivedFrom rdf:parseType="Resource">
            <stRef:instanceID>xmp.iid:0580117407206811822ABC47F382EF0A</stRef:instanceID>
            <stRef:documentID>xmp.did:0580117407206811822ABC47F382EF0A</stRef:documentID>
            <stRef:originalDocumentID>uuid:65E6390686CF11DBA6E2D887CEACB407</stRef:originalDocumentID>
            <stRef:renditionClass>proof:pdf</stRef:renditionClass>
         </xmpMM:DerivedFrom>
         <xmpMM:History>
            <rdf:Seq>
               <rdf:li rdf:parseType="Resource">
                  <stEvt:action>saved</stEvt:action>
                  <stEvt:instanceID>xmp.iid:018011740720681183D1EA6A6E5B3C9E</stEvt:instanceID>
                  <stEvt:when>2015-03-25T16:11:56-07:00</stEvt:when>
                  <stEvt:softwareAgent>Adobe Illustrator CS6 (Macintosh)</stEvt:softwareAgent>
                  <stEvt:changed>/</stEvt:changed>
               </rdf:li>
               <rdf:li rdf:parseType="Resource">
                  <stEvt:action>saved</stEvt:action>
                  <stEvt:instanceID>xmp.iid:8124ECD55F206811822ABC47F382EF0A</stEvt:instanceID>
                  <stEvt:when>2015-03-26T22:32:24-07:00</stEvt:when>
                  <stEvt:softwareAgent>Adobe Illustrator CS6 (Macintosh)</stEvt:softwareAgent>
                  <stEvt:changed>/</stEvt:changed>
               </rdf:li>
            </rdf:Seq>
         </xmpMM:History>
      </rdf:Description>
      <rdf:Description rdf:about=""
            xmlns:illustrator="http://ns.adobe.com/illustrator/1.0/">
         <illustrator:StartupProfile>Web</illustrator:StartupProfile>
      </rdf:Description>
      <rdf:Description rdf:about=""
            xmlns:xmpTPg="http://ns.adobe.com/xap/1.0/t/pg/"
            xmlns:stDim="http://ns.adobe.com/xap/1.0/sType/Dimensions#"
            xmlns:stFnt="http://ns.adobe.com/xap/1.0/sType/Font#"
            xmlns:xmpG="http://ns.adobe.com/xap/1.0/g/">
         <xmpTPg:NPages>1</xmpTPg:NPages>
         <xmpTPg:HasVisibleTransparency>False</xmpTPg:HasVisibleTransparency>
         <xmpTPg:HasVisibleOverprint>False</xmpTPg:HasVisibleOverprint>
         <xmpTPg:MaxPageSize rdf:parseType="Resource">
            <stDim:w>369.009766</stDim:w>
            <stDim:h>60.999512</stDim:h>
            <stDim:unit>Pixels</stDim:unit>
         </xmpTPg:MaxPageSize>
         <xmpTPg:Fonts>
            <rdf:Bag>
               <rdf:li rdf:parseType="Resource">
                  <stFnt:fontName>Raleway-Bold</stFnt:fontName>
                  <stFnt:fontFamily>Raleway</stFnt:fontFamily>
                  <stFnt:fontFace>Bold</stFnt:fontFace>
                  <stFnt:fontType>TrueType</stFnt:fontType>
                  <stFnt:versionString>Version 2.001; ttfautohint (v0.8) -G 200 -r 50</stFnt:versionString>
                  <stFnt:composite>False</stFnt:composite>
                  <stFnt:fontFileName>Raleway-Bold.ttf</stFnt:fontFileName>
               </rdf:li>
            </rdf:Bag>
         </xmpTPg:Fonts>
         <xmpTPg:PlateNames>
            <rdf:Seq>
               <rdf:li>Cyan</rdf:li>
               <rdf:li>Magenta</rdf:li>
               <rdf:li>Yellow</rdf:li>
               <rdf:li>Black</rdf:li>
            </rdf:Seq>
         </xmpTPg:PlateNames>
         <xmpTPg:SwatchGroups>
            <rdf:Seq>
               <rdf:li rdf:parseType="Resource">
                  <xmpG:groupName>Default Swatch Group</xmpG:groupName>
                  <xmpG:groupType>0</xmpG:groupType>
                  <xmpG:Colorants>
                     <rdf:Seq>
                        <rdf:li rdf:parseType="Resource">
                           <xmpG:swatchName>White</xmpG:swatchName>
                           <xmpG:mode>RGB</xmpG:mode>
                           <xmpG:type>PROCESS</xmpG:type>
                           <xmpG:red>255</xmpG:red>
                           <xmpG:green>255</xmpG:green>
                           <xmpG:blue>255</xmpG:blue>
                        </rdf:li>
                        <rdf:li rdf:parseType="Resource">
                           <xmpG:swatchName>Black</xmpG:swatchName>
                           <xmpG:mode>RGB</xmpG:mode>
                           <xmpG:type>PROCESS</xmpG:type>
                           <xmpG:red>0</xmpG:red>
                           <xmpG:green>0</xmpG:green>
                           <xmpG:blue>0</xmpG:blue>
                        </rdf:li>
                        <rdf:li rdf:parseType="Resource">
                           <xmpG:swatchName>background color</xmpG:swatchName>
                           <xmpG:mode>RGB</xmpG:mode>
                           <xmpG:type>PROCESS</xmpG:type>
                           <xmpG:red>243</xmpG:red>
                           <xmpG:green>243</xmpG:green>
                           <xmpG:blue>243</xmpG:blue>
                        </rdf:li>
                     </rdf:Seq>
                  </xmpG:Colorants>
               </rdf:li>
               <rdf:li rdf:parseType="Resource">
                  <xmpG:groupName>Grays</xmpG:groupName>
                  <xmpG:groupType>1</xmpG:groupType>
                  <xmpG:Colorants>
                     <rdf:Seq>
                        <rdf:li rdf:parseType="Resource">
                           <xmpG:swatchName>R=0 G=0 B=0</xmpG:swatchName>
                           <xmpG:mode>RGB</xmpG:mode>
                           <xmpG:type>PROCESS</xmpG:type>
                           <xmpG:red>0</xmpG:red>
                           <xmpG:green>0</xmpG:green>
                           <xmpG:blue>0</xmpG:blue>
                        </rdf:li>
                     </rdf:Seq>
                  </xmpG:Colorants>
               </rdf:li>
               <rdf:li rdf:parseType="Resource">
                  <xmpG:groupName>changecase.net</xmpG:groupName>
                  <xmpG:groupType>1</xmpG:groupType>
                  <xmpG:Colorants>
                     <rdf:Seq>
                        <rdf:li rdf:parseType="Resource">
                           <xmpG:swatchName>R=243 G=243 B=243</xmpG:swatchName>
                           <xmpG:mode>RGB</xmpG:mode>
                           <xmpG:type>PROCESS</xmpG:type>
                           <xmpG:red>243</xmpG:red>
                           <xmpG:green>243</xmpG:green>
                           <xmpG:blue>243</xmpG:blue>
                        </rdf:li>
                        <rdf:li rdf:parseType="Resource">
                           <xmpG:swatchName>secondary color</xmpG:swatchName>
                           <xmpG:mode>RGB</xmpG:mode>
                           <xmpG:type>PROCESS</xmpG:type>
                           <xmpG:red>170</xmpG:red>
                           <xmpG:green>51</xmpG:green>
                           <xmpG:blue>51</xmpG:blue>
                        </rdf:li>
                     </rdf:Seq>
                  </xmpG:Colorants>
               </rdf:li>
            </rdf:Seq>
         </xmpTPg:SwatchGroups>
      </rdf:Description>
      <rdf:Description rdf:about=""
            xmlns:pdf="http://ns.adobe.com/pdf/1.3/">
         <pdf:Producer>Adobe PDF library 10.01</pdf:Producer>
      </rdf:Description>
   </rdf:RDF>
</x:xmpmeta>
                                                                                                    
                                                                                                    
                                                                                                    
                                                                                                    
                                                                                                    
                                                                                                    
                                                                                                    
                                                                                                    
                                                                                                    
                                                                                                    
                                                                                                    
                                                                                                    
                                                                                                    
                                                                                                    
                                                                                                    
                                                                                                    
                                                                                                    
                                                                                                    
                                                                                                    
                                                                                                    
                           
<?xpacket end="w"?>
	</metadata>
<g>
	<polygon style="&st3;" points="9.337,297 17,304.663 17,289.337 	"/>
	<polyline style="&st2;" points="12.5,289.337 4.837,297 12.5,304.663 	"/>
</g>
<g>
	<polygon points="-26.663,297 -19,304.663 -19,289.337 	"/>
	<polyline style="&st4;" points="-11.5,289.337 -19.163,297 -11.5,304.663 	"/>
</g>
<polyline style="&st1;" points="35.451,217.337 5.837,246.951 35.451,276.565 "/>
<g>
	<path style="&st3;" d="M28.824,276.451c-0.586,0-1.174-0.225-1.623-0.673L0,248.577c-0.897-0.896-0.897-2.351,0-3.247
		l27.201-27.202c0.896-0.896,2.352-0.896,3.248,0c0.896,0.897,0.896,2.351,0,3.248L4.871,246.953l25.578,25.578
		c0.896,0.897,0.896,2.35,0,3.247C30,276.227,29.412,276.451,28.824,276.451z"/>
	<path style="&st3;" d="M16.449,246.92c0,0.882,0.258,1.543,0.258,1.543l28.18,28.178c0,0,0.733,0.488,1.552,0.263
		C47.046,276.736,47,275.69,47,275.69v-57.553c0,0,0.026-0.992-0.675-1.107c-0.855-0.14-1.245,0.107-1.245,0.107l-28.364,28.336
		C16.532,246.269,16.449,246.202,16.449,246.92z"/>
</g>
<g>
	<path d="M-72.289,246.914c0,0.412,0.266,0.64,0.266,0.64l28.93,28.93c0,0,0.229,0.263,0.662,0.268
		c0.385,0.004,0.432-0.303,0.432-0.303v-59.084c0,0-0.051-0.339-0.326-0.343c-0.301-0.004-0.603,0.259-0.603,0.259l-29.103,29.091
		C-72.031,246.372-72.289,246.626-72.289,246.914z"/>
	<path d="M-14.055,277.18l-29.169-29.168c-0.586-0.585-0.586-1.536,0-2.121l29.245-29.245c0,0,0.818,0.09,1.43,0.691
		s0.598,1.524,0.598,1.524l-28.091,28.09l27.983,27.982c0,0,0.023,1.01-0.49,1.632S-14.055,277.18-14.055,277.18z"/>
</g>
<g>
	<rect x="66.01" y="228.455" style="&st5;" width="416" height="61.545"/>
	<path style="&st3;" d="M67.547,246.214c0-2.08,0.367-4.136,1.104-6.168c0.736-2.032,1.801-3.847,3.191-5.448
		c1.393-1.6,3.096-2.896,5.113-3.888c2.016-0.991,4.318-1.488,6.912-1.488c3.039,0,5.67,0.688,7.895,2.064
		c2.225,1.376,3.865,3.168,4.92,5.376l-5.088,3.504c-0.383-0.96-0.881-1.768-1.488-2.424c-0.607-0.656-1.271-1.176-1.992-1.56
		c-0.719-0.384-1.463-0.664-2.23-0.84c-0.77-0.176-1.506-0.264-2.209-0.264c-1.568,0-2.943,0.336-4.127,1.008
		c-1.186,0.672-2.168,1.544-2.953,2.616c-0.783,1.072-1.375,2.288-1.775,3.648c-0.4,1.36-0.6,2.712-0.6,4.056
		c0,1.504,0.23,2.952,0.695,4.344c0.463,1.392,1.119,2.616,1.969,3.672c0.848,1.056,1.863,1.904,3.047,2.544s2.48,0.96,3.889,0.96
		c0.736,0,1.488-0.096,2.256-0.288s1.512-0.496,2.232-0.912c0.719-0.416,1.383-0.952,1.992-1.608
		c0.607-0.656,1.104-1.448,1.488-2.376l5.424,3.12c-0.514,1.28-1.258,2.408-2.232,3.384c-0.977,0.977-2.088,1.8-3.336,2.472
		c-1.248,0.672-2.561,1.184-3.936,1.536c-1.377,0.352-2.736,0.528-4.08,0.528c-2.369,0-4.537-0.512-6.504-1.536
		c-1.969-1.024-3.666-2.359-5.088-4.008c-1.426-1.648-2.529-3.52-3.312-5.616C67.938,250.527,67.547,248.391,67.547,246.214z"/>
	<path style="&st3;" d="M123.486,263.494h-6.432v-14.112c0-1.984-0.369-3.448-1.105-4.392c-0.736-0.943-1.775-1.416-3.119-1.416
		c-0.576,0-1.184,0.128-1.824,0.384c-0.641,0.257-1.248,0.617-1.824,1.08c-0.576,0.464-1.104,1.016-1.584,1.656
		s-0.832,1.344-1.057,2.112v14.688h-6.432v-35.04h6.432v14.544c0.93-1.632,2.186-2.887,3.77-3.768
		c1.584-0.879,3.336-1.32,5.256-1.32c1.631,0,2.959,0.28,3.984,0.84c1.023,0.561,1.822,1.304,2.398,2.232
		c0.576,0.929,0.977,1.985,1.201,3.168c0.223,1.185,0.336,2.4,0.336,3.648V263.494z"/>
	<path style="&st3;" d="M135.414,263.975c-1.217,0-2.352-0.201-3.408-0.601s-1.969-0.96-2.736-1.68
		c-0.768-0.72-1.367-1.56-1.801-2.52c-0.432-0.96-0.646-2.016-0.646-3.168c0-1.184,0.264-2.28,0.791-3.288
		c0.527-1.008,1.264-1.864,2.209-2.568c0.943-0.703,2.07-1.255,3.383-1.656c1.312-0.4,2.752-0.6,4.32-0.6
		c1.119,0,2.215,0.096,3.289,0.288c1.07,0.192,2.023,0.464,2.855,0.816v-1.44c0-1.664-0.473-2.944-1.416-3.84
		c-0.945-0.896-2.346-1.344-4.201-1.344c-1.344,0-2.656,0.24-3.936,0.72s-2.592,1.184-3.936,2.112l-1.969-4.08
		c3.232-2.144,6.721-3.216,10.465-3.216c3.615,0,6.424,0.888,8.424,2.664s3,4.344,3,7.704v7.824c0,0.672,0.127,1.152,0.385,1.44
		c0.256,0.288,0.703,0.449,1.344,0.48v5.472c-0.609,0.127-1.176,0.216-1.705,0.264c-0.527,0.049-0.984,0.072-1.367,0.072
		c-1.217-0.032-2.145-0.312-2.785-0.84c-0.639-0.528-1.039-1.24-1.199-2.136l-0.145-1.392c-1.119,1.473-2.48,2.592-4.08,3.36
		C138.949,263.59,137.238,263.975,135.414,263.975z M137.238,259.27c1.086,0,2.119-0.192,3.096-0.576
		c0.975-0.384,1.734-0.896,2.279-1.536c0.703-0.544,1.057-1.152,1.057-1.824v-2.88c-0.768-0.288-1.602-0.52-2.496-0.696
		c-0.896-0.176-1.76-0.264-2.592-0.264c-1.664,0-3.025,0.376-4.08,1.128c-1.057,0.752-1.584,1.704-1.584,2.856
		c0,1.088,0.416,1.992,1.248,2.712C134.998,258.91,136.021,259.27,137.238,259.27z"/>
	<path style="&st3;" d="M179.055,263.494h-6.432v-14.112c0-2.016-0.354-3.488-1.057-4.416c-0.705-0.928-1.68-1.392-2.928-1.392
		c-0.641,0-1.297,0.128-1.969,0.384c-0.672,0.257-1.305,0.617-1.896,1.08c-0.592,0.464-1.127,1.016-1.607,1.656
		s-0.832,1.344-1.057,2.112v14.688h-6.432v-25.152h5.809v4.656c0.928-1.6,2.271-2.848,4.031-3.744
		c1.76-0.896,3.744-1.344,5.953-1.344c1.566,0,2.848,0.288,3.84,0.864c0.992,0.576,1.76,1.329,2.305,2.256
		c0.543,0.928,0.918,1.984,1.127,3.168c0.207,1.184,0.312,2.384,0.312,3.6V263.494z"/>
	<path style="&st3;" d="M193.967,263.639c-1.664,0-3.191-0.336-4.584-1.008s-2.584-1.592-3.576-2.76
		c-0.992-1.168-1.76-2.52-2.305-4.056c-0.543-1.536-0.814-3.168-0.814-4.896c0-1.824,0.287-3.52,0.863-5.088
		c0.576-1.567,1.375-2.944,2.4-4.128c1.023-1.184,2.248-2.112,3.672-2.784c1.424-0.672,3-1.008,4.727-1.008
		c1.984,0,3.713,0.44,5.186,1.32c1.471,0.881,2.672,2.057,3.6,3.528v-4.416h5.615v23.952c0,1.855-0.344,3.521-1.031,4.992
		c-0.689,1.472-1.656,2.72-2.904,3.744c-1.248,1.023-2.721,1.808-4.416,2.353c-1.697,0.543-3.553,0.815-5.568,0.815
		c-2.783,0-5.111-0.456-6.984-1.368c-1.871-0.912-3.479-2.2-4.822-3.863l3.504-3.408c0.959,1.184,2.166,2.111,3.623,2.783
		c1.455,0.672,3.016,1.008,4.68,1.008c0.992,0,1.945-0.136,2.857-0.407c0.91-0.272,1.711-0.696,2.398-1.272s1.232-1.312,1.633-2.208
		s0.6-1.952,0.6-3.168v-3.168c-0.832,1.44-2,2.552-3.504,3.336C197.311,263.246,195.695,263.639,193.967,263.639z M196.174,258.502
		c0.705,0,1.377-0.111,2.018-0.336c0.639-0.223,1.223-0.528,1.752-0.912c0.527-0.384,0.998-0.832,1.416-1.344
		c0.414-0.512,0.734-1.056,0.959-1.632v-6c-0.576-1.472-1.473-2.656-2.688-3.552c-1.217-0.896-2.496-1.344-3.84-1.344
		c-0.992,0-1.896,0.216-2.713,0.648c-0.816,0.432-1.512,1.008-2.088,1.728c-0.576,0.72-1.016,1.544-1.32,2.472
		c-0.305,0.929-0.455,1.889-0.455,2.88c0,1.024,0.176,1.984,0.527,2.88c0.352,0.896,0.84,1.68,1.465,2.352
		c0.623,0.672,1.359,1.2,2.207,1.584C194.262,258.31,195.182,258.502,196.174,258.502z"/>
	<path style="&st3;" d="M225.67,263.975c-2.016,0-3.84-0.345-5.471-1.032c-1.633-0.688-3.025-1.624-4.176-2.808
		c-1.152-1.184-2.041-2.56-2.664-4.128c-0.625-1.568-0.938-3.216-0.938-4.944c0-1.792,0.305-3.48,0.912-5.064
		s1.488-2.976,2.641-4.176c1.152-1.2,2.551-2.152,4.199-2.856c1.648-0.704,3.496-1.056,5.545-1.056c2.047,0,3.879,0.353,5.496,1.056
		c1.615,0.704,2.992,1.648,4.127,2.832c1.137,1.184,2,2.56,2.594,4.128c0.59,1.568,0.887,3.2,0.887,4.896
		c0,0.416-0.008,0.816-0.023,1.2c-0.018,0.384-0.057,0.705-0.121,0.96h-19.439c0.096,0.993,0.336,1.872,0.721,2.64
		c0.383,0.768,0.879,1.424,1.488,1.968c0.607,0.544,1.295,0.96,2.062,1.248c0.77,0.288,1.568,0.432,2.4,0.432
		c1.279,0,2.488-0.312,3.625-0.936c1.135-0.624,1.912-1.447,2.328-2.472l5.52,1.536c-0.928,1.92-2.408,3.497-4.439,4.728
		C230.91,263.358,228.486,263.975,225.67,263.975z M232.199,248.806c-0.16-1.888-0.857-3.4-2.088-4.536
		c-1.232-1.135-2.729-1.704-4.488-1.704c-0.865,0-1.674,0.152-2.424,0.456c-0.752,0.305-1.416,0.729-1.992,1.272
		c-0.576,0.545-1.049,1.2-1.416,1.968c-0.369,0.768-0.584,1.616-0.648,2.544H232.199z"/>
	<path style="&st3;" d="M240.91,250.918c0-1.759,0.305-3.423,0.912-4.992c0.607-1.568,1.488-2.944,2.641-4.128
		c1.152-1.184,2.545-2.128,4.176-2.832c1.633-0.704,3.473-1.056,5.52-1.056c2.752,0,5.096,0.592,7.033,1.776
		c1.936,1.185,3.383,2.736,4.344,4.656l-6.289,1.92c-0.543-0.928-1.264-1.64-2.16-2.136c-0.895-0.496-1.887-0.744-2.975-0.744
		c-0.93,0-1.793,0.184-2.592,0.552c-0.801,0.368-1.496,0.88-2.088,1.536c-0.594,0.656-1.057,1.448-1.393,2.376
		c-0.336,0.928-0.504,1.952-0.504,3.072c0,1.121,0.176,2.145,0.527,3.072c0.352,0.928,0.824,1.728,1.416,2.4s1.289,1.192,2.088,1.56
		c0.801,0.368,1.648,0.552,2.545,0.552c1.152,0,2.215-0.288,3.191-0.864s1.656-1.28,2.041-2.112l6.287,1.92
		c-0.863,1.92-2.289,3.488-4.271,4.704c-1.984,1.217-4.369,1.825-7.152,1.825c-2.049,0-3.889-0.354-5.52-1.057
		c-1.633-0.703-3.025-1.656-4.176-2.856c-1.152-1.2-2.041-2.592-2.664-4.176C241.223,254.302,240.91,252.646,240.91,250.918z"/>
	<path style="&st3;" d="M276.242,263.975c-1.217,0-2.352-0.201-3.408-0.601c-1.055-0.399-1.967-0.96-2.734-1.68
		c-0.77-0.72-1.369-1.56-1.801-2.52s-0.648-2.016-0.648-3.168c0-1.184,0.264-2.28,0.793-3.288c0.527-1.008,1.264-1.864,2.207-2.568
		c0.943-0.703,2.072-1.255,3.385-1.656c1.311-0.4,2.752-0.6,4.32-0.6c1.119,0,2.215,0.096,3.287,0.288s2.023,0.464,2.855,0.816
		v-1.44c0-1.664-0.473-2.944-1.416-3.84c-0.943-0.896-2.344-1.344-4.199-1.344c-1.344,0-2.656,0.24-3.936,0.72
		c-1.281,0.48-2.592,1.184-3.938,2.112l-1.967-4.08c3.232-2.144,6.719-3.216,10.463-3.216c3.617,0,6.424,0.888,8.426,2.664
		c1.998,1.776,3,4.344,3,7.704v7.824c0,0.672,0.127,1.152,0.383,1.44s0.703,0.449,1.344,0.48v5.472
		c-0.607,0.127-1.176,0.216-1.703,0.264c-0.529,0.049-0.984,0.072-1.369,0.072c-1.215-0.032-2.143-0.312-2.783-0.84
		c-0.641-0.528-1.041-1.24-1.199-2.136l-0.145-1.392c-1.121,1.473-2.48,2.592-4.08,3.36
		C279.777,263.59,278.066,263.975,276.242,263.975z M278.066,259.27c1.088,0,2.119-0.192,3.096-0.576
		c0.977-0.384,1.736-0.896,2.281-1.536c0.703-0.544,1.055-1.152,1.055-1.824v-2.88c-0.768-0.288-1.6-0.52-2.496-0.696
		c-0.896-0.176-1.76-0.264-2.592-0.264c-1.664,0-3.023,0.376-4.08,1.128c-1.055,0.752-1.584,1.704-1.584,2.856
		c0,1.088,0.416,1.992,1.248,2.712C275.826,258.91,276.85,259.27,278.066,259.27z"/>
	<path style="&st3;" d="M306.723,263.975c-1.025,0-2.09-0.08-3.193-0.24s-2.184-0.385-3.24-0.672
		c-1.055-0.289-2.062-0.64-3.023-1.056c-0.959-0.416-1.809-0.88-2.543-1.392l2.592-4.368c3.199,2.081,6.287,3.12,9.264,3.12
		c1.344,0,2.4-0.24,3.168-0.72s1.152-1.167,1.152-2.064c0-0.896-0.457-1.56-1.369-1.992c-0.912-0.432-2.439-0.904-4.584-1.416
		c-1.631-0.384-3.023-0.784-4.176-1.2c-1.152-0.416-2.08-0.896-2.783-1.44c-0.705-0.544-1.217-1.168-1.537-1.872
		c-0.32-0.704-0.479-1.536-0.479-2.496c0-1.279,0.254-2.431,0.768-3.456c0.512-1.023,1.223-1.896,2.135-2.616
		c0.912-0.72,1.984-1.272,3.217-1.656c1.23-0.384,2.568-0.576,4.008-0.576c1.791,0,3.576,0.28,5.352,0.84
		c1.777,0.56,3.432,1.32,4.969,2.28l-2.641,3.984c-1.408-0.896-2.736-1.543-3.984-1.944c-1.248-0.399-2.496-0.6-3.744-0.6
		c-1.15,0-2.119,0.224-2.902,0.672c-0.785,0.448-1.176,1.168-1.176,2.16c0,0.864,0.375,1.488,1.127,1.872
		c0.752,0.384,2.088,0.816,4.008,1.296c1.793,0.448,3.32,0.896,4.584,1.344c1.264,0.449,2.305,0.96,3.121,1.536
		c0.814,0.576,1.406,1.24,1.775,1.992c0.367,0.752,0.553,1.656,0.553,2.712c0,1.216-0.25,2.32-0.744,3.312
		c-0.498,0.992-1.193,1.832-2.088,2.52c-0.896,0.688-1.992,1.216-3.289,1.583C309.723,263.789,308.289,263.975,306.723,263.975z"/>
	<path style="&st3;" d="M332.344,263.975c-2.016,0-3.84-0.345-5.471-1.032c-1.633-0.688-3.025-1.624-4.176-2.808
		c-1.152-1.184-2.041-2.56-2.664-4.128c-0.625-1.568-0.938-3.216-0.938-4.944c0-1.792,0.305-3.48,0.912-5.064
		s1.488-2.976,2.641-4.176c1.152-1.2,2.551-2.152,4.199-2.856c1.648-0.704,3.496-1.056,5.545-1.056c2.047,0,3.879,0.353,5.496,1.056
		c1.615,0.704,2.992,1.648,4.127,2.832c1.137,1.184,2,2.56,2.594,4.128c0.59,1.568,0.887,3.2,0.887,4.896
		c0,0.416-0.008,0.816-0.023,1.2c-0.018,0.384-0.057,0.705-0.121,0.96h-19.439c0.096,0.993,0.336,1.872,0.721,2.64
		c0.383,0.768,0.879,1.424,1.488,1.968c0.607,0.544,1.295,0.96,2.062,1.248c0.77,0.288,1.568,0.432,2.4,0.432
		c1.279,0,2.488-0.312,3.625-0.936c1.135-0.624,1.912-1.447,2.328-2.472l5.52,1.536c-0.928,1.92-2.408,3.497-4.439,4.728
		C337.584,263.358,335.16,263.975,332.344,263.975z M338.873,248.806c-0.16-1.888-0.857-3.4-2.088-4.536
		c-1.232-1.135-2.729-1.704-4.488-1.704c-0.865,0-1.674,0.152-2.424,0.456c-0.752,0.305-1.416,0.729-1.992,1.272
		c-0.576,0.545-1.049,1.2-1.416,1.968c-0.369,0.768-0.584,1.616-0.648,2.544H338.873z"/>
</g>
<g>
	<g>
		<path style="&st0;" d="M30.824,61.451c-0.586,0-1.174-0.225-1.623-0.673L2,33.577c-0.897-0.896-0.897-2.351,0-3.247L29.201,3.127
			c0.896-0.896,2.352-0.896,3.248,0c0.896,0.897,0.896,2.351,0,3.248L6.871,31.953l25.578,25.578c0.896,0.897,0.896,2.35,0,3.247
			C32,61.227,31.412,61.451,30.824,61.451z"/>
		<path style="&st0;" d="M18.449,31.92c0,0.882,0.258,1.543,0.258,1.543l28.18,28.178c0,0,0.733,0.488,1.552,0.263
			C49.046,61.736,49,60.69,49,60.69V3.138c0,0,0.026-0.992-0.675-1.107c-0.855-0.14-1.245,0.107-1.245,0.107L18.716,30.474
			C18.532,31.269,18.449,31.202,18.449,31.92z"/>
	</g>
	<g>
		<rect x="68.01" y="13.455" style="&st5;" width="416" height="61.545"/>
		<path style="&st0;" d="M69.547,31.214c0-2.08,0.367-4.136,1.104-6.168c0.736-2.032,1.801-3.847,3.191-5.448
			c1.393-1.6,3.096-2.896,5.113-3.888c2.016-0.991,4.318-1.488,6.912-1.488c3.039,0,5.67,0.688,7.895,2.064
			c2.225,1.376,3.865,3.168,4.92,5.376l-5.088,3.504c-0.383-0.96-0.881-1.768-1.488-2.424c-0.607-0.656-1.271-1.176-1.992-1.56
			c-0.719-0.384-1.463-0.664-2.23-0.84c-0.77-0.176-1.506-0.264-2.209-0.264c-1.568,0-2.943,0.336-4.127,1.008
			c-1.186,0.672-2.168,1.544-2.953,2.616c-0.783,1.072-1.375,2.288-1.775,3.648c-0.4,1.36-0.6,2.712-0.6,4.056
			c0,1.504,0.23,2.952,0.695,4.344c0.463,1.392,1.119,2.616,1.969,3.672c0.848,1.056,1.863,1.904,3.047,2.544s2.48,0.96,3.889,0.96
			c0.736,0,1.488-0.096,2.256-0.288s1.512-0.496,2.232-0.912c0.719-0.416,1.383-0.952,1.992-1.608
			c0.607-0.656,1.104-1.448,1.488-2.376l5.424,3.12c-0.514,1.28-1.258,2.408-2.232,3.384c-0.977,0.977-2.088,1.8-3.336,2.472
			c-1.248,0.672-2.561,1.184-3.936,1.536c-1.377,0.352-2.736,0.528-4.08,0.528c-2.369,0-4.537-0.512-6.504-1.536
			c-1.969-1.024-3.666-2.359-5.088-4.008c-1.426-1.648-2.529-3.52-3.312-5.616C69.938,35.527,69.547,33.391,69.547,31.214z"/>
		<path style="&st0;" d="M125.486,48.494h-6.432V34.382c0-1.984-0.369-3.448-1.105-4.392c-0.736-0.943-1.775-1.416-3.119-1.416
			c-0.576,0-1.184,0.128-1.824,0.384c-0.641,0.257-1.248,0.617-1.824,1.08c-0.576,0.464-1.104,1.016-1.584,1.656
			s-0.832,1.344-1.057,2.112v14.688h-6.432v-35.04h6.432v14.544c0.93-1.632,2.186-2.887,3.77-3.768
			c1.584-0.879,3.336-1.32,5.256-1.32c1.631,0,2.959,0.28,3.984,0.84c1.023,0.561,1.822,1.304,2.398,2.232
			c0.576,0.929,0.977,1.985,1.201,3.168c0.223,1.185,0.336,2.4,0.336,3.648V48.494z"/>
		<path style="&st0;" d="M137.414,48.974c-1.217,0-2.352-0.2-3.408-0.6c-1.057-0.399-1.969-0.96-2.736-1.68
			c-0.768-0.72-1.367-1.56-1.801-2.52c-0.432-0.96-0.646-2.016-0.646-3.168c0-1.184,0.264-2.28,0.791-3.288
			c0.527-1.008,1.264-1.864,2.209-2.568c0.943-0.703,2.07-1.255,3.383-1.656c1.312-0.4,2.752-0.6,4.32-0.6
			c1.119,0,2.215,0.096,3.289,0.288c1.07,0.192,2.023,0.464,2.855,0.816v-1.44c0-1.664-0.473-2.944-1.416-3.84
			c-0.945-0.896-2.346-1.344-4.201-1.344c-1.344,0-2.656,0.24-3.936,0.72s-2.592,1.184-3.936,2.112l-1.969-4.08
			c3.232-2.144,6.721-3.216,10.465-3.216c3.615,0,6.424,0.888,8.424,2.664s3,4.344,3,7.704v7.824c0,0.672,0.127,1.152,0.385,1.44
			c0.256,0.288,0.703,0.449,1.344,0.48v5.472c-0.609,0.127-1.176,0.216-1.705,0.264c-0.527,0.048-0.984,0.072-1.367,0.072
			c-1.217-0.032-2.145-0.312-2.785-0.84c-0.639-0.528-1.039-1.24-1.199-2.136l-0.145-1.392c-1.119,1.473-2.48,2.592-4.08,3.36
			S139.238,48.974,137.414,48.974z M139.238,44.27c1.086,0,2.119-0.192,3.096-0.576c0.975-0.384,1.734-0.896,2.279-1.536
			c0.703-0.544,1.057-1.152,1.057-1.824v-2.88c-0.768-0.288-1.602-0.52-2.496-0.696c-0.896-0.176-1.76-0.264-2.592-0.264
			c-1.664,0-3.025,0.376-4.08,1.128c-1.057,0.752-1.584,1.704-1.584,2.856c0,1.088,0.416,1.992,1.248,2.712
			C136.998,43.91,138.021,44.27,139.238,44.27z"/>
		<path style="&st0;" d="M181.055,48.494h-6.432V34.382c0-2.016-0.354-3.488-1.057-4.416c-0.705-0.928-1.68-1.392-2.928-1.392
			c-0.641,0-1.297,0.128-1.969,0.384c-0.672,0.257-1.305,0.617-1.896,1.08c-0.592,0.464-1.127,1.016-1.607,1.656
			s-0.832,1.344-1.057,2.112v14.688h-6.432V23.342h5.809v4.656c0.928-1.6,2.271-2.848,4.031-3.744
			c1.76-0.896,3.744-1.344,5.953-1.344c1.566,0,2.848,0.288,3.84,0.864c0.992,0.576,1.76,1.329,2.305,2.256
			c0.543,0.928,0.918,1.984,1.127,3.168c0.207,1.184,0.312,2.384,0.312,3.6V48.494z"/>
		<path style="&st0;" d="M195.967,48.638c-1.664,0-3.191-0.336-4.584-1.008c-1.393-0.672-2.584-1.592-3.576-2.76
			c-0.992-1.168-1.76-2.52-2.305-4.056c-0.543-1.536-0.814-3.168-0.814-4.896c0-1.824,0.287-3.52,0.863-5.088
			c0.576-1.567,1.375-2.944,2.4-4.128c1.023-1.184,2.248-2.112,3.672-2.784c1.424-0.672,3-1.008,4.727-1.008
			c1.984,0,3.713,0.44,5.186,1.32c1.471,0.881,2.672,2.057,3.6,3.528v-4.416h5.615v23.952c0,1.855-0.344,3.52-1.031,4.992
			c-0.689,1.472-1.656,2.72-2.904,3.744c-1.248,1.023-2.721,1.807-4.416,2.352c-1.697,0.543-3.553,0.816-5.568,0.816
			c-2.783,0-5.111-0.456-6.984-1.368c-1.871-0.912-3.479-2.2-4.822-3.864l3.504-3.408c0.959,1.184,2.166,2.112,3.623,2.784
			c1.455,0.672,3.016,1.008,4.68,1.008c0.992,0,1.945-0.136,2.857-0.408c0.91-0.272,1.711-0.696,2.398-1.272
			c0.688-0.576,1.232-1.312,1.633-2.208c0.4-0.896,0.6-1.952,0.6-3.168v-3.168c-0.832,1.44-2,2.552-3.504,3.336
			C199.311,48.247,197.695,48.638,195.967,48.638z M198.174,43.502c0.705,0,1.377-0.111,2.018-0.336
			c0.639-0.223,1.223-0.528,1.752-0.912c0.527-0.384,0.998-0.832,1.416-1.344c0.414-0.512,0.734-1.056,0.959-1.632v-6
			c-0.576-1.472-1.473-2.656-2.688-3.552c-1.217-0.896-2.496-1.344-3.84-1.344c-0.992,0-1.896,0.216-2.713,0.648
			c-0.816,0.432-1.512,1.008-2.088,1.728c-0.576,0.72-1.016,1.544-1.32,2.472c-0.305,0.929-0.455,1.889-0.455,2.88
			c0,1.024,0.176,1.984,0.527,2.88c0.352,0.896,0.84,1.68,1.465,2.352c0.623,0.672,1.359,1.2,2.207,1.584
			C196.262,43.31,197.182,43.502,198.174,43.502z"/>
		<path style="&st0;" d="M227.67,48.974c-2.016,0-3.84-0.344-5.471-1.032c-1.633-0.688-3.025-1.624-4.176-2.808
			c-1.152-1.184-2.041-2.56-2.664-4.128c-0.625-1.568-0.938-3.216-0.938-4.944c0-1.792,0.305-3.48,0.912-5.064
			s1.488-2.976,2.641-4.176c1.152-1.2,2.551-2.152,4.199-2.856c1.648-0.704,3.496-1.056,5.545-1.056
			c2.047,0,3.879,0.353,5.496,1.056c1.615,0.704,2.992,1.648,4.127,2.832c1.137,1.184,2,2.56,2.594,4.128
			c0.59,1.568,0.887,3.2,0.887,4.896c0,0.416-0.008,0.816-0.023,1.2c-0.018,0.384-0.057,0.705-0.121,0.96h-19.439
			c0.096,0.993,0.336,1.872,0.721,2.64c0.383,0.768,0.879,1.424,1.488,1.968c0.607,0.544,1.295,0.96,2.062,1.248
			c0.77,0.288,1.568,0.432,2.4,0.432c1.279,0,2.488-0.312,3.625-0.936c1.135-0.624,1.912-1.447,2.328-2.472l5.52,1.536
			c-0.928,1.92-2.408,3.497-4.439,4.728C232.91,48.358,230.486,48.974,227.67,48.974z M234.199,33.806
			c-0.16-1.888-0.857-3.4-2.088-4.536c-1.232-1.135-2.729-1.704-4.488-1.704c-0.865,0-1.674,0.152-2.424,0.456
			c-0.752,0.305-1.416,0.729-1.992,1.272c-0.576,0.545-1.049,1.2-1.416,1.968c-0.369,0.768-0.584,1.616-0.648,2.544H234.199z"/>
		<path style="&st0;" d="M242.91,35.918c0-1.759,0.305-3.423,0.912-4.992c0.607-1.568,1.488-2.944,2.641-4.128
			c1.152-1.184,2.545-2.128,4.176-2.832c1.633-0.704,3.473-1.056,5.52-1.056c2.752,0,5.096,0.592,7.033,1.776
			c1.936,1.185,3.383,2.736,4.344,4.656l-6.289,1.92c-0.543-0.928-1.264-1.64-2.16-2.136c-0.895-0.496-1.887-0.744-2.975-0.744
			c-0.93,0-1.793,0.184-2.592,0.552c-0.801,0.368-1.496,0.88-2.088,1.536c-0.594,0.656-1.057,1.448-1.393,2.376
			c-0.336,0.928-0.504,1.952-0.504,3.072c0,1.121,0.176,2.145,0.527,3.072c0.352,0.928,0.824,1.728,1.416,2.4
			s1.289,1.192,2.088,1.56c0.801,0.368,1.648,0.552,2.545,0.552c1.152,0,2.215-0.288,3.191-0.864s1.656-1.28,2.041-2.112l6.287,1.92
			c-0.863,1.92-2.289,3.488-4.271,4.704c-1.984,1.217-4.369,1.824-7.152,1.824c-2.049,0-3.889-0.353-5.52-1.056
			c-1.633-0.703-3.025-1.656-4.176-2.856c-1.152-1.2-2.041-2.592-2.664-4.176C243.223,39.302,242.91,37.646,242.91,35.918z"/>
		<path style="&st0;" d="M278.242,48.974c-1.217,0-2.352-0.2-3.408-0.6c-1.055-0.399-1.967-0.96-2.734-1.68
			c-0.77-0.72-1.369-1.56-1.801-2.52s-0.648-2.016-0.648-3.168c0-1.184,0.264-2.28,0.793-3.288c0.527-1.008,1.264-1.864,2.207-2.568
			c0.943-0.703,2.072-1.255,3.385-1.656c1.311-0.4,2.752-0.6,4.32-0.6c1.119,0,2.215,0.096,3.287,0.288s2.023,0.464,2.855,0.816
			v-1.44c0-1.664-0.473-2.944-1.416-3.84c-0.943-0.896-2.344-1.344-4.199-1.344c-1.344,0-2.656,0.24-3.936,0.72
			c-1.281,0.48-2.592,1.184-3.938,2.112l-1.967-4.08c3.232-2.144,6.719-3.216,10.463-3.216c3.617,0,6.424,0.888,8.426,2.664
			c1.998,1.776,3,4.344,3,7.704v7.824c0,0.672,0.127,1.152,0.383,1.44s0.703,0.449,1.344,0.48v5.472
			c-0.607,0.127-1.176,0.216-1.703,0.264c-0.529,0.048-0.984,0.072-1.369,0.072c-1.215-0.032-2.143-0.312-2.783-0.84
			c-0.641-0.528-1.041-1.24-1.199-2.136l-0.145-1.392c-1.121,1.473-2.48,2.592-4.08,3.36
			C281.777,48.59,280.066,48.974,278.242,48.974z M280.066,44.27c1.088,0,2.119-0.192,3.096-0.576
			c0.977-0.384,1.736-0.896,2.281-1.536c0.703-0.544,1.055-1.152,1.055-1.824v-2.88c-0.768-0.288-1.6-0.52-2.496-0.696
			c-0.896-0.176-1.76-0.264-2.592-0.264c-1.664,0-3.023,0.376-4.08,1.128c-1.055,0.752-1.584,1.704-1.584,2.856
			c0,1.088,0.416,1.992,1.248,2.712C277.826,43.91,278.85,44.27,280.066,44.27z"/>
		<path style="&st0;" d="M308.723,48.974c-1.025,0-2.09-0.08-3.193-0.24c-1.104-0.161-2.184-0.384-3.24-0.672
			c-1.055-0.288-2.062-0.64-3.023-1.056c-0.959-0.416-1.809-0.88-2.543-1.392l2.592-4.368c3.199,2.081,6.287,3.12,9.264,3.12
			c1.344,0,2.4-0.24,3.168-0.72s1.152-1.167,1.152-2.064c0-0.896-0.457-1.56-1.369-1.992c-0.912-0.432-2.439-0.904-4.584-1.416
			c-1.631-0.384-3.023-0.784-4.176-1.2c-1.152-0.416-2.08-0.896-2.783-1.44c-0.705-0.544-1.217-1.168-1.537-1.872
			c-0.32-0.704-0.479-1.536-0.479-2.496c0-1.279,0.254-2.431,0.768-3.456c0.512-1.023,1.223-1.896,2.135-2.616
			c0.912-0.72,1.984-1.272,3.217-1.656c1.23-0.384,2.568-0.576,4.008-0.576c1.791,0,3.576,0.28,5.352,0.84
			c1.777,0.56,3.432,1.32,4.969,2.28l-2.641,3.984c-1.408-0.896-2.736-1.543-3.984-1.944c-1.248-0.399-2.496-0.6-3.744-0.6
			c-1.15,0-2.119,0.224-2.902,0.672c-0.785,0.448-1.176,1.168-1.176,2.16c0,0.864,0.375,1.488,1.127,1.872
			c0.752,0.384,2.088,0.816,4.008,1.296c1.793,0.448,3.32,0.896,4.584,1.344c1.264,0.449,2.305,0.96,3.121,1.536
			c0.814,0.576,1.406,1.24,1.775,1.992c0.367,0.752,0.553,1.656,0.553,2.712c0,1.216-0.25,2.32-0.744,3.312
			c-0.498,0.992-1.193,1.832-2.088,2.52c-0.896,0.688-1.992,1.216-3.289,1.584C311.723,48.79,310.289,48.974,308.723,48.974z"/>
		<path style="&st0;" d="M334.344,48.974c-2.016,0-3.84-0.344-5.471-1.032c-1.633-0.688-3.025-1.624-4.176-2.808
			c-1.152-1.184-2.041-2.56-2.664-4.128c-0.625-1.568-0.938-3.216-0.938-4.944c0-1.792,0.305-3.48,0.912-5.064
			s1.488-2.976,2.641-4.176c1.152-1.2,2.551-2.152,4.199-2.856c1.648-0.704,3.496-1.056,5.545-1.056
			c2.047,0,3.879,0.353,5.496,1.056c1.615,0.704,2.992,1.648,4.127,2.832c1.137,1.184,2,2.56,2.594,4.128
			c0.59,1.568,0.887,3.2,0.887,4.896c0,0.416-0.008,0.816-0.023,1.2c-0.018,0.384-0.057,0.705-0.121,0.96h-19.439
			c0.096,0.993,0.336,1.872,0.721,2.64c0.383,0.768,0.879,1.424,1.488,1.968c0.607,0.544,1.295,0.96,2.062,1.248
			c0.77,0.288,1.568,0.432,2.4,0.432c1.279,0,2.488-0.312,3.625-0.936c1.135-0.624,1.912-1.447,2.328-2.472l5.52,1.536
			c-0.928,1.92-2.408,3.497-4.439,4.728C339.584,48.358,337.16,48.974,334.344,48.974z M340.873,33.806
			c-0.16-1.888-0.857-3.4-2.088-4.536c-1.232-1.135-2.729-1.704-4.488-1.704c-0.865,0-1.674,0.152-2.424,0.456
			c-0.752,0.305-1.416,0.729-1.992,1.272c-0.576,0.545-1.049,1.2-1.416,1.968c-0.369,0.768-0.584,1.616-0.648,2.544H340.873z"/>
	</g>
</g>
<g>
</g>
<g>
</g>
<g>
</g>
<g>
</g>
<g>
</g>
<g>
</g>
<g>
</g>
<g>
</g>
<g>
</g>
<g>
</g>
<g>
</g>
<g>
</g>
<g>
</g>
<g>
</g>
<g>
</g>
</svg>
